<svg width="45" height="45" viewBox="0 0 45 45" fill="none" xmlns="http://www.w3.org/2000/svg">
<path opacity="0.985" fill-rule="evenodd" clip-rule="evenodd" d="M21.6282 1.86545C26.9777 1.71202 31.7027 3.32765 35.8032 6.71232C39.4853 9.87764 41.8073 13.8558 42.7688 18.6467C43.6726 23.7677 42.8226 28.5741 40.2188 33.0654C37.4543 37.5849 33.5386 40.6444 28.4719 42.2436C25.1097 43.2405 21.7097 43.3905 18.2719 42.6936C13.4888 41.6432 9.54814 39.24 6.45006 35.4842C3.1522 31.3275 1.63345 26.5838 1.89381 21.2529C2.29006 15.8709 4.40567 11.3053 8.24069 7.55607C12.0023 4.05194 16.4648 2.15506 21.6282 1.86545Z" fill="#FEFEFE"/>
<path fill-rule="evenodd" clip-rule="evenodd" d="M21.6473 2.63477C27.0248 2.48829 31.7249 4.17266 35.7473 7.68789C39.376 11.0038 41.5291 15.1132 42.2067 20.016C42.7782 25.1801 41.5782 29.8802 38.6067 34.116C35.6131 38.1694 31.6474 40.7663 26.7098 41.9066C21.9976 42.8796 17.5039 42.2672 13.2286 40.0691C9.32141 37.9556 6.40579 34.8964 4.4817 30.891C2.83787 27.2968 2.28785 23.5406 2.8317 19.6223C3.57399 14.9211 5.68337 10.968 9.15982 7.76289C12.7147 4.61475 16.8772 2.90537 21.6473 2.63477Z" fill="black"/>
<path fill-rule="evenodd" clip-rule="evenodd" d="M23.9343 3.92773C24.6895 4.04128 25.4457 4.14754 26.203 4.24648C26.2805 4.54107 26.3617 4.83482 26.4468 5.12773C26.357 5.17335 26.2632 5.20148 26.1655 5.21211C26.0165 4.91935 25.7978 4.69435 25.5093 4.53711C25.3696 4.48532 25.2258 4.45095 25.078 4.43398C24.9946 4.44552 24.9353 4.48926 24.8999 4.56523C24.8611 4.75823 24.8268 4.95199 24.7968 5.14648C24.8708 5.16283 24.9458 5.17532 25.0218 5.18398C25.1251 5.18811 25.2095 5.15061 25.2749 5.07148C25.3122 4.9786 25.3465 4.88485 25.378 4.79023C25.4641 4.81146 25.5517 4.82397 25.6405 4.82773C25.5843 5.24023 25.528 5.65273 25.4718 6.06523C25.3777 6.06312 25.2839 6.05685 25.1905 6.04648C25.2061 5.88994 25.1718 5.74618 25.0874 5.61523C24.9916 5.54907 24.8853 5.51157 24.7687 5.50273C24.6863 5.79642 24.6488 6.09642 24.6562 6.40273C24.6796 6.45675 24.7203 6.49112 24.778 6.50586C25.1915 6.58532 25.5603 6.49157 25.8843 6.22461C25.9748 6.13399 26.0656 6.04335 26.1562 5.95273C26.2345 6.00443 26.3095 6.06068 26.3812 6.12148C26.218 6.42298 26.0369 6.71674 25.8374 7.00273C25.0793 6.88422 24.32 6.76858 23.5593 6.65586C23.5478 6.63278 23.5417 6.60778 23.5405 6.58086C23.5522 6.49611 23.5647 6.41173 23.578 6.32773C23.7194 6.35841 23.8289 6.31467 23.9062 6.19648C24.0061 5.65257 24.0905 5.1057 24.1593 4.55586C24.1672 4.37316 24.0798 4.27628 23.8968 4.26523C23.8945 4.15028 23.9071 4.03778 23.9343 3.92773Z" fill="#FCFCFC"/>
<path fill-rule="evenodd" clip-rule="evenodd" d="M19.9217 4.09713C20.2986 4.05856 20.6612 4.11168 21.0092 4.2565C21.3606 4.474 21.57 4.78964 21.6374 5.20338C21.7521 5.92722 21.474 6.43034 20.803 6.71275C20.6492 6.76525 20.493 6.809 20.3342 6.844C19.8349 6.922 19.335 6.99389 18.8342 7.05963C18.8215 6.94615 18.8027 6.83365 18.778 6.72213C18.9902 6.69742 19.084 6.57867 19.0592 6.36588C19.0043 5.92177 18.9449 5.47803 18.8811 5.03463C18.8672 4.92903 18.8359 4.82904 18.7874 4.73463C18.7008 4.65294 18.5977 4.62168 18.478 4.64088C18.4683 4.52984 18.4683 4.42047 18.478 4.31275C18.9629 4.24664 19.444 4.17477 19.9217 4.09713Z" fill="#FCFCFC"/>
<path fill-rule="evenodd" clip-rule="evenodd" d="M19.7907 4.45331C20.4033 4.41133 20.7689 4.69258 20.8876 5.29706C20.9506 5.60696 20.9069 5.9007 20.7563 6.17831C20.5467 6.45247 20.2686 6.57435 19.922 6.54393C19.8267 6.49689 19.7798 6.41876 19.7813 6.30956C19.706 5.78178 19.6341 5.25367 19.5657 4.72518C19.5492 4.55735 19.6242 4.46671 19.7907 4.45331Z" fill="#010101"/>
<path fill-rule="evenodd" clip-rule="evenodd" d="M28.9594 4.99707C29.361 5.15716 29.7609 5.3228 30.1594 5.49395C30.1858 5.50085 30.2046 5.51646 30.2156 5.54082C30.1736 5.64366 30.1268 5.74366 30.075 5.84082C29.9353 5.7715 29.8166 5.7965 29.7188 5.91582C29.4741 6.4343 29.2461 6.9593 29.0344 7.49082C29.0389 7.55928 29.0702 7.6124 29.1281 7.6502C29.4302 7.8176 29.7428 7.83635 30.0656 7.70645C30.2123 7.64255 30.3497 7.56443 30.4781 7.47207C30.5436 7.5407 30.606 7.61258 30.6656 7.6877C30.4118 7.93546 30.1523 8.17608 29.8875 8.40957C29.2292 8.11949 28.5699 7.832 27.9094 7.54707C27.9032 7.53456 27.8968 7.52208 27.8906 7.50957C27.9257 7.41665 27.957 7.3229 27.9844 7.22832C28.0643 7.25191 28.1456 7.26128 28.2281 7.25645C28.2851 7.23711 28.332 7.20273 28.3688 7.15332C28.5964 6.67925 28.8088 6.19801 29.0063 5.70957C29.0411 5.61501 29.0411 5.52126 29.0063 5.42832C28.956 5.37488 28.9028 5.3249 28.8469 5.27832C28.89 5.18609 28.9275 5.09234 28.9594 4.99707Z" fill="#FCFCFC"/>
<path fill-rule="evenodd" clip-rule="evenodd" d="M15.1405 5.46582C15.2738 5.57712 15.4051 5.69275 15.5343 5.8127C15.9661 6.25073 16.4035 6.68198 16.8468 7.10645C16.9686 7.20408 17.1061 7.23531 17.2593 7.2002C17.303 7.29395 17.3468 7.3877 17.3905 7.48145C16.9888 7.67478 16.5825 7.85916 16.1718 8.03457C16.1593 8.02833 16.1468 8.02206 16.1343 8.01582C16.0968 7.92831 16.0593 7.84083 16.0218 7.75332C16.0922 7.71655 16.1579 7.67279 16.2187 7.62207C16.2568 7.55018 16.2506 7.48143 16.1999 7.41582C16.0968 7.3127 15.9937 7.20957 15.8905 7.10645C15.8137 7.11957 15.7387 7.14456 15.6655 7.18145C15.478 7.26895 15.2905 7.35644 15.103 7.44395C15.0916 7.46703 15.0854 7.49202 15.0843 7.51895C15.1027 7.65925 15.1183 7.79988 15.1312 7.94082C15.1611 8.0114 15.2142 8.0489 15.2905 8.05332C15.3617 8.04333 15.4305 8.02458 15.4968 7.99707C15.5371 8.07773 15.5777 8.159 15.6187 8.24082C15.6312 8.25957 15.6312 8.27832 15.6187 8.29707C15.2749 8.45331 14.9311 8.60958 14.5874 8.76582C14.5298 8.67445 14.4829 8.57759 14.4468 8.4752C14.4995 8.42247 14.5526 8.36935 14.6062 8.31582C14.639 8.26433 14.6577 8.20808 14.6624 8.14707C14.6515 7.38756 14.6296 6.62819 14.5968 5.86895C14.603 5.81583 14.6093 5.76269 14.6155 5.70957C14.7967 5.63766 14.9717 5.55642 15.1405 5.46582Z" fill="#FDFDFD"/>
<path fill-rule="evenodd" clip-rule="evenodd" d="M15.0093 6.23438C15.1993 6.42754 15.3868 6.62441 15.5718 6.825C15.4019 6.91292 15.23 6.99729 15.0562 7.07813C15.0239 6.79802 15.0082 6.51677 15.0093 6.23438Z" fill="#060606"/>
<path fill-rule="evenodd" clip-rule="evenodd" d="M33.3654 7.28418C33.8565 7.65305 34.3346 8.04054 34.7998 8.44668C35.1752 8.87105 35.1594 9.28044 34.7529 9.6748C34.4632 9.8749 34.1632 9.88739 33.8529 9.7123C33.6191 9.5563 33.3973 9.38442 33.1873 9.19668C33.0351 9.3389 32.91 9.50139 32.8123 9.68418C32.7889 9.7325 32.7827 9.78249 32.7936 9.83418C32.8296 9.90464 32.8764 9.96714 32.9342 10.0217C32.871 10.1106 32.7992 10.1918 32.7186 10.2654C32.3629 9.988 32.0098 9.70675 31.6592 9.42168C31.7239 9.34527 31.7865 9.26714 31.8467 9.1873C31.9176 9.21282 31.9926 9.2347 32.0717 9.25293C32.1349 9.24755 32.1911 9.22567 32.2404 9.1873C32.589 8.78881 32.9233 8.37944 33.2436 7.95918C33.3467 7.79602 33.3247 7.65226 33.1779 7.52793C33.2409 7.44633 33.3034 7.36509 33.3654 7.28418Z" fill="#FCFCFC"/>
<path fill-rule="evenodd" clip-rule="evenodd" d="M22.0222 7.69664C26.0461 7.6477 29.5524 8.95083 32.5409 11.606C35.4592 14.3526 37.0623 17.7369 37.3503 21.7591C37.5102 26.2252 36.032 30.0408 32.9159 33.206C30.2095 35.8021 26.972 37.2148 23.2034 37.4435C19.372 37.5727 15.972 36.4413 13.0034 34.0498C9.8729 31.3861 8.09476 27.9956 7.66904 23.8779C7.36889 19.5658 8.63765 15.797 11.4753 12.5716C14.3251 9.53303 17.8407 7.90805 22.0222 7.69664Z" fill="#FDFDFD"/>
<path fill-rule="evenodd" clip-rule="evenodd" d="M10.5652 8.27857C10.5873 8.27446 10.606 8.2807 10.6215 8.29732C10.6769 8.37779 10.7394 8.45279 10.809 8.52232C10.6541 8.65124 10.6385 8.795 10.7621 8.95357C11.0629 9.29808 11.3567 9.64808 11.6434 10.0036C11.7096 10.0761 11.7815 10.1417 11.859 10.2004C11.9358 10.2123 12.0046 10.1936 12.0652 10.1442C12.2938 9.96528 12.4282 9.7309 12.4684 9.44107C12.4866 9.2542 12.4772 9.06983 12.4402 8.88794C12.5284 8.8552 12.619 8.82708 12.7121 8.80357C12.7266 8.80628 12.7391 8.81253 12.7496 8.82232C12.8592 9.15083 12.953 9.48209 13.0309 9.81607C12.4635 10.2951 11.8979 10.7763 11.334 11.2598C11.2587 11.1845 11.19 11.1033 11.1277 11.0161C11.2579 10.8855 11.2735 10.7418 11.1746 10.5848C10.8263 10.1604 10.4669 9.74482 10.0965 9.33794C9.98023 9.27173 9.874 9.28735 9.77773 9.38482C9.70326 9.30406 9.62826 9.2228 9.55273 9.14107C9.8961 8.86017 10.2336 8.57266 10.5652 8.27857Z" fill="#FCFCFC"/>
<path fill-rule="evenodd" clip-rule="evenodd" d="M21.9278 8.27858C26.4444 8.20806 30.2226 9.82682 33.2621 13.1348C35.6522 15.9037 36.8271 19.1286 36.7871 22.8098C36.6743 26.4258 35.4304 29.5819 33.0559 32.2786C30.7074 34.7796 27.8231 36.2764 24.4028 36.7692C20.5877 37.2248 17.1251 36.3374 14.0153 34.1067C11.0459 31.8674 9.18651 28.9143 8.43713 25.2473C7.72305 21.0664 8.62305 17.279 11.1371 13.8848C13.5293 10.8536 16.6449 9.03172 20.484 8.4192C20.9663 8.35343 21.4476 8.30655 21.9278 8.27858Z" fill="#010101"/>
<path fill-rule="evenodd" clip-rule="evenodd" d="M33.9658 8.27832C34.236 8.32975 34.3922 8.49226 34.4346 8.76582C34.3468 9.20658 34.0969 9.3347 33.6846 9.1502C33.5822 9.08211 33.4884 9.00398 33.4033 8.91582C33.5724 8.68433 33.7599 8.47184 33.9658 8.27832Z" fill="#020202"/>
<path fill-rule="evenodd" clip-rule="evenodd" d="M21.9658 9.17841C23.4801 9.13241 24.9613 9.32929 26.4096 9.76903C26.7746 10.1087 27.0591 10.5056 27.2627 10.9597C27.4554 11.4775 27.4054 11.9713 27.1127 12.4409C26.9717 12.6661 26.7998 12.8661 26.5971 13.0409C25.5156 12.2404 24.3531 11.5685 23.1096 11.0253C21.2709 10.2334 19.3584 9.95843 17.3721 10.2003C18.8477 9.60163 20.379 9.261 21.9658 9.17841Z" fill="#FEFEFE"/>
<path fill-rule="evenodd" clip-rule="evenodd" d="M27.5532 10.1904C29.2171 10.8615 30.6796 11.8303 31.9407 13.0967C31.0332 13.8147 30.13 14.5397 29.2313 15.2717C28.5488 14.614 27.8333 13.9983 27.0845 13.4248C28.1003 12.4733 28.2565 11.3951 27.5532 10.1904Z" fill="#FEFEFE"/>
<path fill-rule="evenodd" clip-rule="evenodd" d="M37.0406 10.6592C37.0691 10.6594 37.0909 10.6719 37.1063 10.6967C37.3532 11.0529 37.5999 11.4092 37.8469 11.7654C37.7651 11.8346 37.6776 11.8971 37.5844 11.9529C37.5094 11.8342 37.4033 11.7873 37.2656 11.8123C37.0922 11.9037 36.9264 12.0068 36.7688 12.1217C36.7562 12.1404 36.7562 12.1592 36.7688 12.1779C36.9557 12.4461 37.1496 12.7086 37.35 12.9654C37.5191 12.8714 37.6755 12.7589 37.8188 12.6279C37.9071 12.5049 37.9039 12.383 37.8094 12.2623C37.8999 12.1967 37.9907 12.1311 38.0813 12.0654C38.343 12.4357 38.6023 12.8075 38.8594 13.1811C38.7752 13.2451 38.6876 13.3044 38.5969 13.3592C38.5142 13.2553 38.4079 13.2147 38.2781 13.2373C38.1188 13.3092 37.9688 13.3967 37.8281 13.4998C37.5013 13.7273 37.1794 13.9617 36.8625 14.2029C36.7798 14.321 36.7766 14.4429 36.8531 14.5686C36.7746 14.6409 36.6902 14.7065 36.6 14.7654C36.3383 14.3952 36.0789 14.0233 35.8219 13.6498C35.9061 13.5796 35.9934 13.514 36.0844 13.4529C36.1378 13.5033 36.1941 13.5502 36.2531 13.5936C36.3236 13.6074 36.3924 13.6011 36.4594 13.5748C36.6611 13.4474 36.858 13.313 37.05 13.1717C37.056 13.1453 37.0496 13.1203 37.0313 13.0967C36.8499 12.8374 36.6656 12.5811 36.4781 12.3279C36.3064 12.4544 36.1314 12.5763 35.9531 12.6936C35.8931 12.7473 35.8399 12.8067 35.7938 12.8717C35.7812 12.9154 35.7812 12.9592 35.7938 13.0029C35.8142 13.0555 35.8329 13.1055 35.85 13.1529C35.7624 13.2154 35.6751 13.2779 35.5875 13.3404C35.3319 12.9699 35.0788 12.598 34.8281 12.2248C34.9059 12.1534 34.9903 12.0878 35.0813 12.0279C35.1564 12.1546 35.2659 12.2015 35.4094 12.1686C35.8967 11.8623 36.3686 11.5342 36.825 11.1842C36.8929 11.0652 36.8835 10.9527 36.7969 10.8467C36.879 10.7832 36.9602 10.7206 37.0406 10.6592Z" fill="#FCFCFC"/>
<path fill-rule="evenodd" clip-rule="evenodd" d="M18.3656 10.678C20.0107 10.6539 21.5796 10.9883 23.0719 11.6811C24.1423 12.1754 25.1486 12.7691 26.0906 13.4623C25.5566 13.8075 24.9877 14.0887 24.3844 14.3061C23.3057 14.6695 22.2056 14.9508 21.0844 15.1498C20.2297 15.3057 19.3734 15.4526 18.5156 15.5905C18.5745 15.7889 18.6276 15.9889 18.675 16.1905C19.8555 15.9901 21.0336 15.7744 22.2094 15.5436C23.3066 15.3216 24.3692 14.9903 25.3969 14.5498C25.8276 14.3534 26.2339 14.119 26.6156 13.8467C27.3499 14.4214 28.0592 15.0276 28.7437 15.6655C28.7563 15.678 28.7563 15.6905 28.7437 15.703C27.1933 17.0282 25.6652 18.3814 24.1594 19.7623C24.2856 19.9198 24.3887 20.0918 24.4687 20.278C24.4822 20.2958 24.4978 20.299 24.5156 20.2873C26.0589 18.8689 27.6246 17.4782 29.2125 16.1155C29.9113 16.8013 30.5394 17.5419 31.0969 18.3373C30.3924 19.0808 29.8519 19.9339 29.475 20.8967C29.3151 21.3015 29.1776 21.714 29.0625 22.1342C28.8529 22.9849 28.656 23.8348 28.4719 24.6842C28.6946 24.6169 28.9164 24.5481 29.1375 24.478C29.3216 23.7351 29.5029 22.9913 29.6812 22.2467C29.9661 21.1272 30.4597 20.1147 31.1625 19.2092C31.2559 19.0939 31.359 18.9876 31.4719 18.8905C32.5611 20.5605 33.258 22.3855 33.5625 24.3655C33.8205 24.4133 34.0455 24.5258 34.2375 24.703C33.9487 22.4548 33.1894 20.383 31.9594 18.4873C32.2725 18.2255 32.6349 18.0787 33.0469 18.0467C33.4234 18.0601 33.7547 18.1882 34.0406 18.4311C34.5587 18.8863 34.9931 19.4082 35.3437 19.9967C35.5018 20.2438 35.6454 20.5002 35.775 20.7655C36.1594 23.7501 35.6218 26.5564 34.1625 29.1842C34.1653 29.0775 34.1715 28.9712 34.1812 28.8655C33.9834 29.038 33.7584 29.163 33.5062 29.2405C33.4232 29.7272 33.3169 30.2085 33.1875 30.6842C30.8751 33.6647 27.8344 35.4055 24.0656 35.9061C23.5551 35.9717 23.0426 35.9968 22.5281 35.9811C23.6614 35.3918 24.6332 34.6013 25.4437 33.6092C26.1439 32.6785 26.7251 31.6722 27.1875 30.5905C27.4102 30.0846 27.6101 29.572 27.7875 29.053C27.5511 29.1837 27.3011 29.2774 27.0375 29.3342C26.6871 30.2541 26.2684 31.1417 25.7812 31.9967C24.9988 33.3917 23.9143 34.4886 22.5281 35.2873C22.0579 35.5506 21.5642 35.7568 21.0469 35.9061C19.3147 35.7349 17.6835 35.235 16.1531 34.4061C14.9149 33.7277 13.8025 32.8808 12.8156 31.8655C13.5022 31.1258 14.1991 30.3945 14.9062 29.6717C14.9188 29.6592 14.9188 29.6468 14.9062 29.6342C14.7023 29.5266 14.4867 29.461 14.2594 29.4373C13.6338 30.0816 13.015 30.7317 12.4031 31.3873C12.3906 31.3999 12.3781 31.3999 12.3656 31.3873C10.2104 28.8602 9.11977 25.9258 9.09375 22.5842C9.43762 21.4791 10.0251 20.529 10.8562 19.7342C10.8625 19.4905 10.8688 19.2467 10.875 19.003C10.8815 18.9707 10.8909 18.9396 10.9031 18.9092C10.8937 18.8901 10.8812 18.8869 10.8656 18.8998C10.2 19.4547 9.64686 20.1015 9.20625 20.8405C9.5448 18.408 10.4635 16.2267 11.9625 14.2967C12.8091 13.2 13.7997 12.2594 14.9344 11.4748C16.0334 11.0047 17.1771 10.7391 18.3656 10.678Z" fill="#FEFEFE"/>
<path fill-rule="evenodd" clip-rule="evenodd" d="M7.95957 10.9033C8.06292 10.9582 8.15667 11.027 8.24082 11.1096C8.14606 11.2273 8.14293 11.346 8.23145 11.4658C8.57208 11.7315 8.91269 11.9971 9.25332 12.2627C9.36888 12.3532 9.49386 12.4282 9.62832 12.4877C9.67833 12.5002 9.72831 12.5002 9.77832 12.4877C9.83165 12.4468 9.88478 12.4062 9.9377 12.3658C10.0188 12.4218 10.1 12.478 10.1814 12.5346C9.93027 12.9116 9.66153 13.2803 9.3752 13.6408C9.28458 13.5752 9.19394 13.5096 9.10332 13.4439C9.22703 13.2581 9.1958 13.1019 9.00957 12.9752C8.62206 12.6877 8.23458 12.4002 7.84707 12.1127C7.67855 12.0037 7.53792 12.0318 7.4252 12.1971C7.33458 12.1314 7.24394 12.0658 7.15332 12.0002C7.43386 11.6418 7.7026 11.2762 7.95957 10.9033Z" fill="#FCFCFC"/>
<path fill-rule="evenodd" clip-rule="evenodd" d="M15.0094 13.2656C15.0582 13.3838 15.1019 13.5057 15.1406 13.6312C15.2781 13.6375 15.4156 13.6438 15.5531 13.65C15.4366 13.73 15.3241 13.8144 15.2156 13.9031C15.2639 14.0196 15.2983 14.1383 15.3187 14.2594C15.2217 14.1859 15.1217 14.1171 15.0187 14.0531C14.9127 14.1216 14.8064 14.1903 14.7 14.2594C14.7225 14.1354 14.7569 14.0135 14.8031 13.8937C14.6969 13.8125 14.5906 13.7312 14.4844 13.65C14.6223 13.6468 14.7598 13.6375 14.8969 13.6219C14.9346 13.5026 14.9721 13.3838 15.0094 13.2656Z" fill="#040404"/>
<path fill-rule="evenodd" clip-rule="evenodd" d="M32.3717 13.5654C32.4559 13.6211 32.5341 13.6899 32.6061 13.7717C33.9236 15.2875 34.8547 17.0188 35.3998 18.9654C35.0184 18.434 34.5529 17.9934 34.0029 17.6436C33.3598 17.3311 32.7159 17.3311 32.0717 17.6436C31.9281 17.7153 31.7904 17.7966 31.6592 17.8873C31.6356 17.9057 31.6106 17.912 31.5842 17.9061C31.0089 17.1306 30.3778 16.3993 29.6904 15.7123C30.5715 14.9779 31.4653 14.2622 32.3717 13.5654Z" fill="#FEFEFE"/>
<path fill-rule="evenodd" clip-rule="evenodd" d="M13.5092 13.6035C13.5714 13.7115 13.6214 13.8271 13.6592 13.9504C13.7967 13.9566 13.9342 13.9629 14.0717 13.9691C13.9644 14.0577 13.8519 14.1389 13.7342 14.2129C13.7842 14.3379 13.8186 14.466 13.8373 14.5973C13.7361 14.5147 13.6298 14.4397 13.5186 14.3723C13.4187 14.447 13.3188 14.522 13.2186 14.5973C13.2428 14.4711 13.2772 14.3461 13.3217 14.2223C13.2186 14.1349 13.1123 14.0505 13.0029 13.9691C13.1342 13.9629 13.2654 13.9566 13.3967 13.9504C13.4436 13.8379 13.4811 13.7222 13.5092 13.6035Z" fill="#050505"/>
<path fill-rule="evenodd" clip-rule="evenodd" d="M16.4156 13.6035C16.4701 13.7167 16.5138 13.8355 16.5469 13.9598C16.6845 13.9567 16.822 13.9598 16.9594 13.9691C16.8562 14.0473 16.7531 14.1254 16.65 14.2035C16.6666 14.3318 16.701 14.4568 16.7531 14.5785C16.7469 14.5848 16.7406 14.591 16.7344 14.5973C16.6326 14.5199 16.5295 14.4449 16.425 14.3723C16.3201 14.4326 16.2232 14.5045 16.1344 14.5879C16.1188 14.6008 16.1063 14.5977 16.0969 14.5785C16.149 14.4568 16.1833 14.3318 16.2 14.2035C16.0986 14.1231 15.9954 14.045 15.8906 13.9691C16.028 13.9598 16.1655 13.9567 16.3031 13.9598C16.3332 13.8384 16.3707 13.7197 16.4156 13.6035Z" fill="#050505"/>
<path fill-rule="evenodd" clip-rule="evenodd" d="M5.85977 14.0156C5.96613 14.0438 6.06926 14.0813 6.16914 14.1281C6.16177 14.215 6.16177 14.3025 6.16914 14.3906C6.19648 14.4368 6.23085 14.4774 6.27227 14.5125C6.75212 14.737 7.23962 14.9433 7.73477 15.1313C7.80977 15.1438 7.88477 15.1438 7.95977 15.1313C8.02563 15.077 8.085 15.0176 8.13789 14.9531C8.23376 14.9932 8.3244 15.0401 8.40977 15.0938C8.24218 15.507 8.06718 15.9163 7.88477 16.3219C7.78468 16.2843 7.69093 16.2375 7.60352 16.1813C7.66672 16.0598 7.64797 15.9536 7.54727 15.8625C7.31597 15.7406 7.07846 15.6312 6.83477 15.5344C6.68867 15.8456 6.55742 16.1643 6.44102 16.4906C6.66277 16.5656 6.88153 16.65 7.09727 16.7438C7.16602 16.7563 7.23476 16.7563 7.30352 16.7438C7.37666 16.6956 7.43602 16.6362 7.48164 16.5656C7.5798 16.5975 7.67042 16.6413 7.75352 16.6969C7.59264 17.1113 7.41763 17.5175 7.22852 17.9156C7.13203 17.8673 7.03203 17.8298 6.92852 17.8031C6.95621 17.7174 6.96558 17.6299 6.95664 17.5406C6.90527 17.457 6.8334 17.3977 6.74102 17.3625C6.2994 17.1761 5.85564 16.9948 5.40977 16.8188C5.21152 16.7398 5.07401 16.7992 4.99727 16.9969C4.90428 16.9544 4.81053 16.9138 4.71602 16.875C4.70623 16.8645 4.69998 16.852 4.69727 16.8375C4.86825 16.4244 5.04637 16.015 5.23164 15.6094C5.32758 15.6549 5.42447 15.6987 5.52227 15.7406C5.46326 15.8591 5.47577 15.9685 5.55977 16.0688C5.73318 16.1693 5.91444 16.2537 6.10352 16.3219C6.24791 16.0173 6.3854 15.7079 6.51602 15.3938C6.34886 15.3068 6.17385 15.238 5.99102 15.1875C5.93477 15.175 5.87852 15.175 5.82227 15.1875C5.74976 15.2382 5.68727 15.2975 5.63477 15.3656C5.53502 15.3407 5.44751 15.297 5.37227 15.2344C5.54027 14.8297 5.70275 14.4235 5.85977 14.0156Z" fill="#FCFCFC"/>
<path fill-rule="evenodd" clip-rule="evenodd" d="M12.4967 14.5781C12.5456 14.6965 12.5893 14.8184 12.6279 14.9437C12.7654 14.95 12.9029 14.9563 13.0404 14.9625C12.9239 15.0425 12.8114 15.1269 12.7029 15.2156C12.7536 15.3332 12.7942 15.4519 12.8248 15.5719C12.7184 15.5028 12.6121 15.4341 12.5061 15.3656C12.3937 15.4249 12.2875 15.4937 12.1873 15.5719C12.2022 15.4457 12.2366 15.3238 12.2904 15.2062C12.1842 15.125 12.0779 15.0437 11.9717 14.9625C12.109 14.9531 12.2465 14.95 12.3842 14.9531C12.4159 14.8261 12.4534 14.7011 12.4967 14.5781Z" fill="#050505"/>
<path fill-rule="evenodd" clip-rule="evenodd" d="M17.6157 15.0652C17.7407 15.0777 17.8657 15.0902 17.9907 15.1027C17.8878 15.1776 17.794 15.262 17.7095 15.3559C17.7497 15.47 17.7779 15.5857 17.7938 15.7027C17.6933 15.6241 17.5902 15.5491 17.4845 15.4777C17.3787 15.5491 17.2756 15.6241 17.1751 15.7027C17.2026 15.5765 17.2339 15.4515 17.2688 15.3277C17.1657 15.2496 17.0626 15.1715 16.9595 15.0934C17.0907 15.0871 17.222 15.0809 17.3532 15.0746C17.3927 14.9514 17.4364 14.8295 17.4845 14.709C17.5313 14.8285 17.5751 14.9473 17.6157 15.0652Z" fill="#040404"/>
<path fill-rule="evenodd" clip-rule="evenodd" d="M17.6157 15.0658C17.7476 15.0596 17.8788 15.0658 18.0095 15.0845C18.0071 15.0959 18.0009 15.1022 17.9907 15.1033C17.8657 15.0908 17.7407 15.0783 17.6157 15.0658Z" fill="#7A7A7A"/>
<path fill-rule="evenodd" clip-rule="evenodd" d="M39.8154 15.3465C39.8402 15.3433 39.8621 15.3496 39.8811 15.3653C40.0369 15.7764 40.1963 16.1858 40.3592 16.5934C40.26 16.6358 40.1599 16.6765 40.0592 16.7153C40.0133 16.635 39.9508 16.5693 39.8717 16.5184C39.7605 16.5054 39.6542 16.5241 39.5529 16.5746C39.1076 16.746 38.664 16.921 38.2217 17.0996C38.1623 17.134 38.1154 17.1809 38.0811 17.2403C38.0724 17.3224 38.0724 17.4037 38.0811 17.484C37.9892 17.5251 37.8954 17.5626 37.7998 17.5965C37.6268 17.1966 37.4644 16.7903 37.3123 16.3778C37.2983 16.3565 37.3014 16.3377 37.3217 16.3215C37.4154 16.284 37.5092 16.2465 37.6029 16.209C37.6624 16.3668 37.7749 16.4324 37.9404 16.4059C38.4819 16.24 39.0069 16.0338 39.5154 15.7871C39.5443 15.7575 39.5663 15.7231 39.5811 15.684C39.5908 15.6076 39.5908 15.5326 39.5811 15.459C39.6617 15.4233 39.7399 15.3858 39.8154 15.3465Z" fill="#FDFDFD"/>
<path fill-rule="evenodd" clip-rule="evenodd" d="M12.0094 15.8906C12.0675 16.0088 12.1113 16.1338 12.1406 16.2656C12.2783 16.2625 12.4158 16.2656 12.5531 16.275C12.4393 16.3506 12.3331 16.4349 12.2344 16.5281C12.2789 16.6522 12.3133 16.7772 12.3375 16.9031C12.231 16.8216 12.1248 16.7404 12.0187 16.6594C11.9127 16.7404 11.8065 16.8216 11.7 16.9031C11.7317 16.7794 11.7661 16.6544 11.8031 16.5281C11.7052 16.4351 11.5989 16.3508 11.4844 16.275C11.628 16.2656 11.7717 16.2625 11.9156 16.2656C11.9352 16.1373 11.9665 16.0123 12.0094 15.8906Z" fill="#050505"/>
<path fill-rule="evenodd" clip-rule="evenodd" d="M17.8593 16.0596C17.8827 16.061 17.8983 16.0735 17.9062 16.0971C17.9463 16.2082 17.9807 16.3207 18.0093 16.4346C18.1469 16.4315 18.2844 16.4346 18.4218 16.4439C18.3072 16.5197 18.201 16.6041 18.103 16.6971C18.1476 16.8212 18.182 16.9462 18.2062 17.0721C18.1072 16.9899 18.0041 16.9149 17.8968 16.8471C17.7801 16.9104 17.6708 16.9854 17.5687 17.0721C17.6004 16.9484 17.6348 16.8234 17.6718 16.6971C17.6522 16.6651 17.6272 16.637 17.5968 16.6127C17.5123 16.5611 17.431 16.5048 17.353 16.4439C17.4904 16.4346 17.6279 16.4315 17.7655 16.4346C17.7968 16.3095 17.8281 16.1845 17.8593 16.0596Z" fill="#050505"/>
<path fill-rule="evenodd" clip-rule="evenodd" d="M12.1402 17.3154C12.1923 17.429 12.236 17.5477 12.2715 17.6717C12.4086 17.6873 12.5461 17.6966 12.684 17.6998C12.5792 17.7756 12.476 17.8538 12.3746 17.9342C12.3983 18.0677 12.4295 18.1989 12.4684 18.3279C12.3671 18.2454 12.2609 18.1704 12.1496 18.1029C12.0498 18.1777 11.9498 18.2527 11.8496 18.3279C11.8663 18.1996 11.9006 18.0746 11.9527 17.9529C11.838 17.8728 11.7255 17.7884 11.6152 17.6998C11.7527 17.6936 11.8902 17.6873 12.0277 17.6811C12.0709 17.5611 12.1084 17.4392 12.1402 17.3154Z" fill="#080808"/>
<path fill-rule="evenodd" clip-rule="evenodd" d="M17.7093 17.5029C17.7544 17.6163 17.7982 17.7319 17.8405 17.8498C17.9718 17.856 18.103 17.8623 18.2343 17.8686C18.1273 17.9594 18.021 18.05 17.9155 18.1404C17.9639 18.2571 17.9982 18.3758 18.0187 18.4967C17.9216 18.4232 17.8216 18.3544 17.7187 18.2904C17.6132 18.3552 17.51 18.424 17.4093 18.4967C17.4211 18.3755 17.4524 18.2536 17.503 18.1311C17.3905 18.0435 17.278 17.9561 17.1655 17.8686C17.3091 17.8592 17.4529 17.8561 17.5968 17.8592C17.6268 17.7378 17.6643 17.6191 17.7093 17.5029Z" fill="#060606"/>
<path fill-rule="evenodd" clip-rule="evenodd" d="M12.9283 18.4971C12.9937 18.612 13.0375 18.737 13.0596 18.8721C13.2035 18.8689 13.3472 18.8721 13.4908 18.8814C13.3668 18.9525 13.2543 19.0369 13.1533 19.1346C13.1916 19.2525 13.2354 19.3682 13.2846 19.4814C13.2721 19.494 13.2596 19.494 13.2471 19.4814C13.1542 19.404 13.0542 19.3384 12.9471 19.2846C12.8356 19.3489 12.7263 19.4177 12.6189 19.4908C12.6514 19.3684 12.692 19.2465 12.7408 19.1252C12.6339 19.0373 12.5214 18.9559 12.4033 18.8814C12.5408 18.8753 12.6783 18.8689 12.8158 18.8627C12.8589 18.7427 12.8964 18.6208 12.9283 18.4971Z" fill="#050505"/>
<path fill-rule="evenodd" clip-rule="evenodd" d="M16.9029 18.6465C16.9679 18.7601 17.0117 18.885 17.0342 19.0215C17.1781 19.0183 17.3218 19.0215 17.4654 19.0309C17.3511 19.1021 17.2417 19.1803 17.1373 19.2652C17.1578 19.3864 17.1922 19.505 17.2404 19.6215C17.2342 19.6277 17.2279 19.634 17.2217 19.6402C17.1275 19.562 17.0275 19.4932 16.9217 19.434C16.8145 19.4878 16.7145 19.5534 16.6217 19.6309C16.6092 19.6434 16.5967 19.6434 16.5842 19.6309C16.6234 19.5163 16.6609 19.4008 16.6967 19.284C16.5987 19.191 16.4925 19.1066 16.3779 19.0309C16.5153 19.0215 16.6528 19.0183 16.7904 19.0215C16.8316 18.8977 16.8691 18.7729 16.9029 18.6465Z" fill="#050505"/>
<path fill-rule="evenodd" clip-rule="evenodd" d="M11.2967 19.0404C11.3371 19.038 11.3746 19.0474 11.4092 19.0685C12.7425 20.3295 14.3175 20.8046 16.1342 20.4935C17.0812 20.2796 17.8749 19.8109 18.5154 19.0873C18.55 19.0661 18.5875 19.0567 18.6279 19.0592C18.6047 19.3273 18.5515 19.5898 18.4685 19.8467C18.1868 20.66 17.8243 21.4352 17.381 22.1717C16.942 22.8686 16.4982 23.5624 16.0498 24.2529C15.4448 25.4717 15.1479 26.7622 15.1592 28.1248C15.1678 28.5157 15.1772 28.9063 15.1873 29.2967C15.1613 29.3164 15.1331 29.3195 15.1029 29.306C14.7001 29.1116 14.2751 28.9991 13.8279 28.9685C13.1222 28.8872 12.4535 29.0059 11.8217 29.3248C11.7101 29.3915 11.607 29.4697 11.5123 29.5592C11.4796 28.9378 11.5796 28.3378 11.8123 27.7592C12.0975 27.051 12.46 26.3885 12.8998 25.7717C13.4137 25.0552 13.9918 24.3896 14.6342 23.7748C15.1599 23.3302 15.6912 22.8928 16.2279 22.4623C16.772 21.9995 17.2564 21.4839 17.681 20.9154C17.7774 20.7658 17.8618 20.6096 17.9342 20.4467C17.9075 20.3758 17.8731 20.3758 17.831 20.4467C16.5084 22.35 14.6803 23.2406 12.3467 23.1185C11.9889 23.0953 11.6327 23.0578 11.2779 23.006C11.2561 21.7042 11.2529 20.4011 11.2685 19.0967C11.2781 19.0774 11.2875 19.0586 11.2967 19.0404Z" fill="black"/>
<path fill-rule="evenodd" clip-rule="evenodd" d="M38.5033 19.041C38.5346 19.041 38.5658 19.041 38.5971 19.041C38.6353 19.2388 38.7542 19.3607 38.9533 19.4066C39.6896 19.6095 40.4271 19.8064 41.1658 19.9973C41.1951 20.1808 41.2202 20.3651 41.2408 20.5504C41.2401 20.5834 41.2337 20.6147 41.2221 20.6441C40.5424 21.0055 39.8674 21.3741 39.1971 21.7504C39.0578 21.8321 38.9889 21.954 38.9908 22.116C38.8794 22.1372 38.7669 22.1498 38.6533 22.1535C38.6108 21.714 38.5545 21.2766 38.4846 20.841C38.5935 20.8005 38.706 20.7754 38.8221 20.766C38.8234 20.8528 38.8453 20.934 38.8877 21.0098C38.9619 21.0551 39.0399 21.0583 39.1221 21.0191C39.2376 20.9646 39.3501 20.9051 39.4596 20.841C39.4813 20.7731 39.4845 20.7043 39.4689 20.6348C39.4356 20.4163 39.4044 20.1975 39.3752 19.9785C39.3658 19.9691 39.3564 19.9598 39.3471 19.9504C39.1746 19.9046 38.9996 19.8859 38.8221 19.8941C38.7803 19.9172 38.7521 19.9515 38.7377 19.9973C38.7283 20.0721 38.7251 20.1471 38.7283 20.2223C38.6228 20.2204 38.5196 20.233 38.4189 20.2598C38.3672 19.8664 38.3203 19.4726 38.2783 19.0785C38.3573 19.0744 38.4323 19.062 38.5033 19.041Z" fill="#FCFCFC"/>
<path fill-rule="evenodd" clip-rule="evenodd" d="M21.6094 19.1904C22.1835 19.1394 22.7272 19.2425 23.2406 19.4998C23.9032 19.8853 24.2533 20.4633 24.2906 21.2341C24.2826 21.8536 23.9826 22.2506 23.3906 22.4248C22.7186 22.5654 22.2405 22.3248 21.9562 21.7029C21.8128 21.3549 21.7442 20.9923 21.75 20.6154C21.7026 20.2586 21.5057 20.1367 21.1594 20.2498C20.9449 20.3456 20.7855 20.4988 20.6812 20.7091C20.4501 21.2148 20.3188 21.7462 20.2875 22.3029C20.2466 22.784 20.2153 23.2653 20.1937 23.7466C20.6334 23.1721 21.2177 22.8909 21.9469 22.9029C22.8264 22.8943 23.5046 23.2567 23.9812 23.9904C24.3889 24.7051 24.5576 25.4739 24.4875 26.2966C24.4556 27.2881 24.0774 28.1163 23.3531 28.781C22.6042 29.3621 21.7543 29.6058 20.8031 29.5123C19.4391 29.379 18.4797 28.6884 17.925 27.4404C17.6308 26.7131 17.4683 25.9567 17.4375 25.1716C17.3559 24.0307 17.5122 22.9245 17.9062 21.8529C18.5955 20.2096 19.8298 19.3222 21.6094 19.1904Z" fill="black"/>
<path fill-rule="evenodd" clip-rule="evenodd" d="M14.1842 19.2285C14.2348 19.3491 14.2786 19.4741 14.3154 19.6035C14.4525 19.6191 14.59 19.6285 14.7279 19.6316C14.6128 19.7061 14.5003 19.7843 14.3904 19.866C14.4368 19.9894 14.4712 20.1143 14.4936 20.241C14.3936 20.166 14.2935 20.091 14.1936 20.016C14.0931 20.0946 13.9899 20.1696 13.8842 20.241C13.8779 20.2348 13.8717 20.2285 13.8654 20.2223C13.901 20.1062 13.9385 19.9905 13.9779 19.8754C13.8756 19.7897 13.7694 19.7085 13.6592 19.6316C13.7904 19.6255 13.9217 19.6191 14.0529 19.6129C14.1023 19.4867 14.146 19.3586 14.1842 19.2285Z" fill="#040404"/>
<path fill-rule="evenodd" clip-rule="evenodd" d="M4.62148 19.3028C4.90257 19.2634 5.1588 19.3227 5.39023 19.4809C5.5602 19.6658 5.64145 19.8844 5.63398 20.1372C5.6113 20.3969 5.58628 20.6562 5.55898 20.9153C5.77493 20.9663 5.99368 20.9819 6.21523 20.9622C6.32961 20.9181 6.38586 20.8337 6.38398 20.7091C6.49712 20.7164 6.60962 20.7287 6.72148 20.7466C6.6637 21.1902 6.60745 21.6338 6.55273 22.0778C6.44622 22.0754 6.33996 22.069 6.23398 22.0591C6.26093 21.8657 6.17968 21.7501 5.99023 21.7122C5.43587 21.6312 4.87962 21.5749 4.32148 21.5434C4.21099 21.5986 4.15474 21.6891 4.15273 21.8153C4.04743 21.7958 3.94118 21.7832 3.83398 21.7778C3.88463 21.2839 3.93775 20.7902 3.99336 20.2966C4.00939 19.954 4.13753 19.6634 4.37773 19.4247C4.45549 19.3733 4.53673 19.3326 4.62148 19.3028Z" fill="#FCFCFC"/>
<path fill-rule="evenodd" clip-rule="evenodd" d="M15.6656 19.2842C15.7145 19.4027 15.7582 19.5246 15.7969 19.6498C15.9344 19.656 16.0719 19.6624 16.2094 19.6686C16.0928 19.7486 15.9803 19.833 15.8719 19.9217C15.9183 20.0451 15.9527 20.1699 15.975 20.2967C15.878 20.217 15.778 20.142 15.675 20.0717C15.5638 20.1392 15.4575 20.2142 15.3562 20.2967C15.3749 20.1654 15.4093 20.0374 15.4594 19.9123C15.3531 19.8311 15.2469 19.7497 15.1406 19.6686C15.2719 19.6624 15.4031 19.656 15.5344 19.6498C15.58 19.5285 15.6238 19.4066 15.6656 19.2842Z" fill="#050505"/>
<path fill-rule="evenodd" clip-rule="evenodd" d="M4.62179 20.0155C4.95205 19.9694 5.15517 20.107 5.23116 20.428C5.24425 20.5673 5.23488 20.7048 5.20304 20.8405C4.94474 20.851 4.68848 20.8291 4.43429 20.7749C4.32807 20.7376 4.28431 20.6626 4.30304 20.5499C4.29231 20.2992 4.39857 20.1211 4.62179 20.0155Z" fill="#030303"/>
<path fill-rule="evenodd" clip-rule="evenodd" d="M39.7407 20.0342C40.0173 20.1002 40.2922 20.172 40.5657 20.2498C40.3139 20.382 40.0578 20.5039 39.797 20.6154C39.7829 20.4212 39.7642 20.2275 39.7407 20.0342Z" fill="#010101"/>
<path fill-rule="evenodd" clip-rule="evenodd" d="M20.9159 24.2342C21.2517 24.2098 21.4924 24.3473 21.6377 24.6467C21.7187 24.8453 21.7686 25.0515 21.7877 25.2654C21.8536 25.9661 21.8474 26.6661 21.769 27.3654C21.7394 27.6714 21.6518 27.9591 21.5065 28.2279C21.3421 28.4558 21.1202 28.5401 20.8409 28.4811C20.5634 28.374 20.404 28.1708 20.3627 27.8717C20.3132 27.6621 20.2881 27.4496 20.2877 27.2342C20.2752 26.7218 20.2752 26.2091 20.2877 25.6967C20.2999 25.3434 20.3624 24.9998 20.4752 24.6654C20.5591 24.4534 20.7061 24.3096 20.9159 24.2342Z" fill="#FDFDFD"/>
<path fill-rule="evenodd" clip-rule="evenodd" d="M26.4467 24.7219C27.4258 24.7101 28.0414 25.1788 28.2936 26.1281C28.3367 26.2943 28.3587 26.463 28.3592 26.6344C27.6793 26.8101 27.0012 26.9912 26.3248 27.1781C26.341 27.4885 26.469 27.7416 26.7092 27.9375C27.0276 28.1134 27.3338 28.0946 27.628 27.8813C27.7512 27.7706 27.8607 27.6488 27.9561 27.5156C28.0941 27.6754 28.2283 27.838 28.3592 28.0031C27.946 28.6271 27.3617 28.9521 26.6061 28.9781C25.6483 28.981 25.036 28.5248 24.7686 27.6094C24.5837 26.8189 24.715 26.0876 25.1623 25.4156C25.4965 25.0095 25.9245 24.7783 26.4467 24.7219Z" fill="#010101"/>
<path fill-rule="evenodd" clip-rule="evenodd" d="M29.7094 24.7028C29.7505 24.7275 29.7786 24.765 29.7938 24.8153C29.9145 25.1353 29.9834 25.4665 30 25.809C30.093 25.5293 30.2117 25.2606 30.3563 25.0028C30.5987 24.6745 30.8955 24.615 31.2469 24.8246C31.3877 24.9533 31.4721 25.1126 31.5 25.3028C31.5079 25.422 31.5079 25.5409 31.5 25.659C31.6911 25.315 31.9694 25.068 32.3344 24.9184C32.7321 24.7346 33.1446 24.691 33.5719 24.7871C33.999 24.9021 34.1897 25.1801 34.1438 25.6215C34.0735 25.8355 33.9265 25.9637 33.7032 26.0059C33.3278 26.0573 33.0621 25.9105 32.9063 25.5653C32.877 25.4995 32.8613 25.4306 32.8594 25.359C32.6597 25.3618 32.566 25.465 32.5782 25.6684C32.5712 25.8231 32.64 25.9294 32.7844 25.9871C32.9991 26.0734 33.2179 26.1484 33.4407 26.2121C34.1629 26.4859 34.4597 27.0077 34.3313 27.7778C34.2585 28.3442 33.9492 28.7098 33.4032 28.8746C32.8425 29.0233 32.2864 29.0108 31.7344 28.8371C31.3679 28.6699 31.2149 28.3855 31.275 27.984C31.3667 27.6272 31.5949 27.4802 31.9594 27.5434C32.2161 27.619 32.3787 27.7877 32.4469 28.0496C32.4824 28.1571 32.5105 28.2664 32.5313 28.3778C32.5487 28.4162 32.5769 28.4443 32.6157 28.4621C32.7636 28.4775 32.9074 28.4588 33.0469 28.4059C33.2241 28.2932 33.2584 28.1462 33.15 27.9653C33.1157 27.9058 33.0689 27.859 33.0094 27.8246C32.7145 27.6709 32.4145 27.5273 32.1094 27.3934C31.5694 27.0853 31.3289 26.6198 31.3875 25.9965C31.234 26.2386 31.0184 26.3104 30.7407 26.2121C30.6445 26.175 30.5477 26.1407 30.45 26.109C30.4032 26.1182 30.3657 26.1431 30.3375 26.184C30.2789 26.3102 30.2352 26.4415 30.2063 26.5778C30.1752 26.7645 30.15 26.952 30.1313 27.1403C30.1219 27.5089 30.1187 27.8777 30.1219 28.2465C30.247 28.2653 30.3719 28.284 30.4969 28.3028C30.4969 28.4841 30.4969 28.6652 30.4969 28.8465C29.7719 28.8465 29.047 28.8465 28.3219 28.8465C28.3157 28.6648 28.3219 28.4835 28.3407 28.3028C28.4655 28.284 28.5906 28.2653 28.7157 28.2465C28.7189 27.5653 28.7157 26.884 28.7063 26.2028C28.7069 26.0044 28.635 25.8388 28.4907 25.7059C28.3969 25.6549 28.297 25.633 28.1907 25.6403C28.1847 25.4792 28.191 25.3198 28.2094 25.1621C28.7132 25.014 29.2133 24.8608 29.7094 24.7028Z" fill="black"/>
<path fill-rule="evenodd" clip-rule="evenodd" d="M26.4282 25.2845C26.5969 25.2516 26.725 25.3079 26.8126 25.4532C26.9451 25.7223 26.9639 25.9973 26.8688 26.2782C26.8345 26.3125 26.8 26.347 26.7657 26.3813C26.5831 26.452 26.3956 26.5051 26.2032 26.5407C26.1957 26.2461 26.2051 25.9523 26.2313 25.6595C26.2534 25.5087 26.3191 25.3838 26.4282 25.2845Z" fill="#FCFCFC"/>
<path fill-rule="evenodd" clip-rule="evenodd" d="M5.69023 25.8848C5.7018 25.8868 5.71118 25.893 5.71836 25.9035C5.84288 26.3207 5.971 26.7364 6.10273 27.1504C6.55898 27.1566 7.01524 27.163 7.47148 27.1691C7.09708 27.4375 6.72833 27.7123 6.36523 27.9941C6.49463 28.398 6.62588 28.8011 6.75898 29.2035C6.75274 29.2097 6.74648 29.2161 6.74023 29.2223C6.39649 28.9723 6.05273 28.7222 5.70898 28.4723C5.347 28.7248 4.98763 28.9811 4.63086 29.241C4.74703 28.8236 4.87515 28.408 5.01523 27.9941C4.65332 27.7193 4.29081 27.4444 3.92773 27.1691C4.37773 27.163 4.82773 27.1566 5.27773 27.1504C5.42085 26.7304 5.55835 26.3085 5.69023 25.8848Z" fill="#FDFDFD"/>
<path fill-rule="evenodd" clip-rule="evenodd" d="M39.2908 25.8848C39.3024 25.8868 39.3118 25.893 39.3189 25.9035C39.4434 26.3207 39.5715 26.7364 39.7033 27.1504C40.1595 27.1566 40.6159 27.163 41.0721 27.1691C40.6976 27.4375 40.329 27.7123 39.9658 27.9941C40.0952 28.398 40.2264 28.8011 40.3596 29.2035C40.3534 29.2097 40.347 29.2161 40.3408 29.2223C39.9971 28.9723 39.6533 28.7222 39.3096 28.4723C38.9475 28.7248 38.5883 28.9811 38.2314 29.241C38.3477 28.8236 38.4758 28.408 38.6158 27.9941C38.2539 27.7193 37.8913 27.4444 37.5283 27.1691C37.9783 27.163 38.4283 27.1566 38.8783 27.1504C39.0214 26.7304 39.159 26.3085 39.2908 25.8848Z" fill="#FDFDFD"/>
<path fill-rule="evenodd" clip-rule="evenodd" d="M17.1844 26.4473C17.2586 26.6755 17.3242 26.9066 17.3812 27.141C16.7745 27.7416 16.1745 28.3478 15.5812 28.9598C15.5396 28.6804 15.5271 28.3991 15.5437 28.116C16.0876 27.5565 16.6345 27.0002 17.1844 26.4473Z" fill="#020202"/>
<path fill-rule="evenodd" clip-rule="evenodd" d="M10.9221 34.0973C11.3721 34.1098 11.8221 34.1222 12.2721 34.1348C11.9166 34.3931 11.5635 34.6556 11.2127 34.9223C11.3215 35.3425 11.4496 35.7581 11.5971 36.1691C11.5846 36.1817 11.5721 36.1817 11.5596 36.1691C11.2206 35.9106 10.8738 35.6638 10.5189 35.4285C10.166 35.6738 9.81597 35.9239 9.46895 36.1785C9.57946 35.7563 9.70758 35.3374 9.85332 34.9223C9.48456 34.6566 9.11583 34.3911 8.74707 34.1254C9.1972 34.1222 9.6472 34.1128 10.0971 34.0973C10.2358 33.6718 10.3764 33.2468 10.5189 32.8223C10.659 33.2456 10.7934 33.6707 10.9221 34.0973Z" fill="#FDFDFD"/>
<path fill-rule="evenodd" clip-rule="evenodd" d="M35.3342 34.0971C35.7842 34.1096 36.2342 34.122 36.6842 34.1346C36.3236 34.3946 35.9644 34.6571 35.6061 34.9221C35.5935 34.947 35.5935 34.9721 35.6061 34.9971C35.7465 35.3901 35.8684 35.7838 35.9717 36.1783C35.6261 35.9171 35.2731 35.6672 34.9123 35.4283C34.5624 35.6781 34.2126 35.928 33.8623 36.1783C33.9756 35.7568 34.1036 35.3381 34.2467 34.9221C33.8869 34.6528 33.5242 34.3871 33.1592 34.1252C33.6094 34.122 34.0594 34.1126 34.5092 34.0971C34.6416 33.6778 34.776 33.2591 34.9123 32.8408C35.0559 33.2599 35.1966 33.6786 35.3342 34.0971Z" fill="#FDFDFD"/>
<path fill-rule="evenodd" clip-rule="evenodd" d="M10.9219 34.097C11.3783 34.0909 11.8345 34.097 12.2906 34.1158C12.2883 34.1272 12.2821 34.1334 12.2719 34.1345C11.8219 34.122 11.3719 34.1096 10.9219 34.097Z" fill="#252525"/>
<path fill-rule="evenodd" clip-rule="evenodd" d="M35.3345 34.097C35.7908 34.0909 36.2472 34.097 36.7032 34.1158C36.701 34.1272 36.6946 34.1334 36.6845 34.1345C36.2345 34.122 35.7845 34.1096 35.3345 34.097Z" fill="#232323"/>
<path fill-rule="evenodd" clip-rule="evenodd" d="M27.178 37.3594C27.3335 37.7758 27.4711 38.2009 27.5905 38.6344C28.0469 38.6312 28.5031 38.6344 28.9593 38.6437C28.5824 38.907 28.2136 39.1789 27.853 39.4594C27.9912 39.8769 28.1193 40.2956 28.2374 40.7156C27.8932 40.4557 27.5463 40.1994 27.1968 39.9469C26.8379 40.1964 26.4817 40.4496 26.128 40.7062C26.1155 40.7188 26.1031 40.7188 26.0905 40.7062C26.2298 40.2917 26.3673 39.876 26.503 39.4594C26.4878 39.4348 26.4691 39.4129 26.4468 39.3937C26.0997 39.1483 25.756 38.8984 25.4155 38.6437C25.8657 38.6406 26.3157 38.6312 26.7655 38.6156C26.9107 38.199 27.0481 37.7803 27.178 37.3594Z" fill="#FDFDFD"/>
<path fill-rule="evenodd" clip-rule="evenodd" d="M18.0281 37.378C18.0468 37.3774 18.0593 37.3868 18.0656 37.4061C18.195 37.81 18.3263 38.2131 18.4594 38.6155C18.9092 38.631 19.3592 38.6404 19.8094 38.6436C19.4376 38.9125 19.0687 39.1843 18.7031 39.4592C18.8451 39.8693 18.9731 40.2818 19.0875 40.6967C18.738 40.4503 18.3911 40.2004 18.0469 39.9467C17.6849 40.1993 17.3255 40.4556 16.9687 40.7155C17.0878 40.296 17.2159 39.8773 17.3531 39.4592C17.3335 39.4273 17.3085 39.3992 17.2781 39.3748C16.9406 39.1311 16.6031 38.8873 16.2656 38.6436C16.7218 38.6342 17.1781 38.631 17.6344 38.6342C17.7618 38.2144 17.8931 37.7955 18.0281 37.378Z" fill="#FDFDFD"/>
</svg>
