<svg width="41" height="41" viewBox="0 0 41 41" fill="none" xmlns="http://www.w3.org/2000/svg">
<path d="M35.1383 35.2344H5.82969C4.19609 35.2344 2.88281 33.9211 2.88281 32.2875V7.23906C2.88281 6.43828 3.55547 5.76562 4.35625 5.76562H30.75C31.5508 5.76562 32.2234 6.43828 32.2234 7.23906V14.6383V32.3195C32.2234 33.9211 33.5367 35.2344 35.1383 35.2344C36.7719 35.2344 38.0852 33.9211 38.0852 32.2875V16.0797C38.0852 15.2789 37.4125 14.6062 36.6117 14.6062H35.1383" fill="white"/>
<path d="M7.36719 10.2188H27.5789C28.1234 10.2188 28.5398 10.6352 28.5398 11.1797V16.593C28.5398 17.1375 28.1234 17.5539 27.5789 17.5539H7.36719C6.82266 17.5539 6.40625 17.1375 6.40625 16.593V11.1797C6.40625 10.6352 6.82266 10.2188 7.36719 10.2188ZM35.1383 35.2352C36.7719 35.2352 38.0852 33.9219 38.0852 32.2883V16.0805C38.0852 15.2797 37.4125 14.607 36.6117 14.607H32.1914V32.2883C32.2234 33.9219 33.5367 35.2352 35.1383 35.2352Z" fill="black"/>
<path d="M35.1383 36.1953H5.82969C3.68359 36.1953 1.92188 34.4336 1.92188 32.2875V7.23906C1.92188 5.89375 3.01094 4.80469 4.35625 4.80469H30.75C32.0953 4.80469 33.1844 5.89375 33.1844 7.23906V32.3195C33.1844 33.4086 34.0813 34.3055 35.1703 34.3055C36.2594 34.3055 37.1562 33.4086 37.1562 32.3195V16.0797C37.1562 15.7914 36.932 15.5672 36.6438 15.5672H35.1703C34.6258 15.5672 34.2094 15.1508 34.2094 14.6062C34.2094 14.0617 34.6258 13.6453 35.1703 13.6453H36.6438C37.9891 13.6453 39.0781 14.7344 39.0781 16.0797V32.2875C39.0461 34.4656 37.2844 36.1953 35.1383 36.1953ZM4.35625 6.72656C4.06797 6.72656 3.84375 6.95078 3.84375 7.23906V32.3195C3.84375 33.4086 4.74063 34.3055 5.82969 34.3055H31.807C31.4547 33.7289 31.2625 33.0563 31.2625 32.3195V7.23906C31.2625 6.95078 31.0383 6.72656 30.75 6.72656H4.35625Z" fill="black"/>
<path d="M13.1969 23.3516H7.36719C6.82266 23.3516 6.40625 22.9352 6.40625 22.3906C6.40625 21.8461 6.82266 21.4297 7.36719 21.4297H13.1969C13.7414 21.4297 14.1578 21.8461 14.1578 22.3906C14.1578 22.9352 13.7414 23.3516 13.1969 23.3516ZM13.1969 31.6156H7.36719C6.82266 31.6156 6.40625 31.1992 6.40625 30.6547C6.40625 30.1102 6.82266 29.6937 7.36719 29.6937H13.1969C13.7414 29.6937 14.1578 30.1102 14.1578 30.6547C14.1578 31.1992 13.7414 31.6156 13.1969 31.6156ZM13.1969 27.4516H7.36719C6.82266 27.4516 6.40625 27.0352 6.40625 26.4906C6.40625 25.9461 6.82266 25.5297 7.36719 25.5297H13.1969C13.7414 25.5297 14.1578 25.9461 14.1578 26.4906C14.1578 27.0352 13.7414 27.4516 13.1969 27.4516Z" fill="black"/>
<path d="M27.5469 31.7422H18.5781C18.0336 31.7422 17.6172 31.3258 17.6172 30.7812V21.9727C17.6172 21.4281 18.0336 21.0117 18.5781 21.0117H27.5469C28.0914 21.0117 28.5078 21.4281 28.5078 21.9727V30.7812C28.5078 31.2938 28.0914 31.7422 27.5469 31.7422ZM19.5391 29.8203H26.5859V22.9336H19.5391V29.8203Z" fill="black"/>
</svg>
