<svg width="59" height="34" viewBox="0 0 59 34" fill="none" xmlns="http://www.w3.org/2000/svg">
<g clip-path="url(#clip0_127411_553)">
<path d="M3.54164 0H11.6258C13.5879 0 15.1675 1.5605 15.1675 3.49888V30.5011C15.1675 32.4395 13.5879 34 11.6258 34H3.54164C1.57957 34 0 32.4395 0 30.5011V3.49888C0 1.5605 1.57957 0 3.54164 0Z" fill="white"/>
<path d="M9.61793 6.23187L9.62918 6.34688C9.87309 6.48927 10.0006 6.60427 10.25 6.76309C10.9041 7.17383 11.708 7.90221 11.6082 10.405C11.7966 10.9526 11.8798 12.0205 12.0461 12.3601C12.3843 13.0337 12.6171 13.4718 12.7169 14.1016C12.7169 14.1016 12.8167 15.0874 12.9442 15.1586C13.6204 15.3119 13.4265 15.3776 13.5207 15.4981C13.6259 15.6296 14.0195 15.6241 14.0195 15.9855C14.1582 16.1663 14.2635 16.347 14.3355 16.5441V3.52647C14.3355 2.03686 13.1159 0.832031 11.6136 0.832031H9.01362C9.42938 0.979897 9.66775 1.15515 9.80641 1.42897C10.1389 1.45635 10.5327 2.19568 9.9172 3.29646C10.1888 3.48266 9.9781 3.75649 9.78408 4.06865C9.72311 4.16723 9.66213 4.34795 9.47919 4.337C9.23528 4.83536 8.95249 5.30634 8.73645 5.33372C8.67555 5.41039 8.63105 5.62398 8.72529 5.72255C9.04149 5.86494 9.42384 6.05115 9.61793 6.23187Z" fill="#C80F2E"/>
<path d="M12.0458 33.1322L12.0182 33.1377C13.21 32.4203 12.4727 31.0622 12.2455 30.2626L12.2898 30.1256C12.3507 30.016 12.2233 29.7587 12.2233 29.7587C12.0737 29.6382 12.0404 28.9702 11.9627 28.6635C11.8354 28.1651 12.19 27.2944 12.19 26.9986C12.19 26.7027 11.9627 26.2976 11.5526 25.7828C11.4527 25.6678 11.1534 23.1432 10.8873 22.5024C10.5159 21.6206 10.4049 21.7629 9.96159 20.7061C9.62337 19.9667 9.88945 18.877 9.12453 16.3468L9.2963 16.188C9.2963 16.188 8.68653 13.9864 8.48688 13.384C8.29279 12.7816 7.93262 12.7433 7.93262 12.7433L7.95471 12.4311C7.98251 12.338 8.69754 10.5034 8.75851 10.4431C8.76398 10.4048 9.78959 9.70928 9.80615 9.81333C9.88922 10.2624 10.2884 12.5461 10.4602 12.9076C10.632 13.2745 11.2253 14.3917 11.4969 15.0872C10.4381 15.3446 9.64531 16.292 9.64531 17.4148C9.64531 18.7401 10.7319 19.8189 12.0734 19.8189C13.0988 19.8189 13.9859 19.1892 14.3406 18.302L14.3351 30.4764C14.3353 31.8234 13.3541 32.9351 12.0458 33.1322Z" fill="#C80F2E"/>
<path d="M8.15972 0.832031C7.27277 1.17157 7.15081 1.54945 7.11763 2.76524C6.96796 2.78167 6.65745 2.63928 6.76285 3.37861C6.76285 3.37861 6.81829 3.87149 7.01785 3.78935C6.86263 4.86274 6.98597 5.1314 6.26402 5.20776C6.1088 5.22419 5.92025 5.23514 5.6875 5.2461L5.61544 5.34468C4.6287 5.43778 4.13996 5.37548 3.50331 6.20449C3.2594 6.52212 2.99886 6.9712 2.67734 7.61195C2.67734 7.61195 2.38353 8.32937 2.29476 8.6251C2.01205 9.21109 1.31912 10.509 1.11401 11.3415C1.04756 11.6262 0.919989 11.7139 1.10292 12.1246C1.37455 12.7161 0.925532 12.8694 2.46661 12.8256V13.1761C2.46661 13.1761 2.05639 13.5266 1.9677 13.7347C1.88455 13.9483 1.64618 14.9943 1.65734 15.4926C1.68498 16.7906 2.75494 17.8749 3.07084 19.1674L3.78595 19.266C4.17399 20.1478 5.87028 22.5244 6.26394 22.9078C6.26948 22.9133 6.27503 22.9189 6.28057 22.9243C6.36919 23.1488 6.8072 23.4282 7.06212 23.7075C7.21741 23.8554 7.93259 24.6221 8.88599 25.3505C9.23599 25.6179 9.61233 25.8817 10.0058 26.1063C9.99468 26.1007 10.2386 26.5827 10.3605 26.977C9.87272 27.3657 10.8206 28.0778 11.1089 29.2553C11.1255 29.4139 10.8317 29.5729 11.2697 29.9617C11.242 31.7414 10.6932 32.6726 11.6134 33.1653H3.50331C2.02883 33.1325 0.836914 31.9387 0.836914 30.4764V3.52647C0.836914 2.05329 2.02875 0.86489 3.50331 0.832031H8.15972Z" fill="#1D4289"/>
<path fill-rule="evenodd" clip-rule="evenodd" d="M19.2471 0.816406V33.1275H22.7819C22.7912 24.8065 22.9822 16.452 22.4639 8.22843L26.5391 33.1275H31.6111V0.816406H28.111C28.0397 9.38343 28.3476 17.8308 28.9356 26.1896L24.701 0.816406H19.2471Z" fill="#1D4289"/>
<path fill-rule="evenodd" clip-rule="evenodd" d="M49.8899 0.794922L46.4155 33.1332H50.7383L51.3038 26.5941H54.1318L54.6974 33.1332H58.9999L55.6266 0.794922H49.8899ZM52.7178 9.92284L53.8086 22.8001H51.627L52.7178 9.92284Z" fill="#1D4289"/>
<path d="M34.3364 0.816422V33.1101H40.6589C41.6953 33.1101 45.224 32.2153 45.224 27.7315V21.2817C45.224 20.6021 45.2299 18.4716 43.3455 17.2199C44.5229 17.2199 45.224 14.9632 45.224 12.9126V5.99412C45.224 3.29847 43.5257 0.809088 40.1135 0.816422H34.3364ZM38.235 4.94519H40.1539C41.033 4.94519 41.3255 5.90395 41.3255 6.64133V14.1624C41.3255 15.4489 40.8974 15.5461 40.0125 15.5461H38.235V4.94519ZM38.235 19.0723H40.1539C41.033 19.0723 41.3255 20.031 41.3255 20.7684V27.486C41.3255 28.3613 40.8838 29.0259 40.0125 29.0259L38.235 29.0482V19.0723Z" fill="#1D4289"/>
</g>
<defs>
<clipPath id="clip0_127411_553">
<rect width="59" height="34" fill="white"/>
</clipPath>
</defs>
</svg>
