<svg width="21" height="47" viewBox="0 0 21 47" fill="none" xmlns="http://www.w3.org/2000/svg">
<g clip-path="url(#clip0_127421_583)">
<path d="M15.9094 0.210938H4.96512C2.3168 0.210938 0.169922 2.35489 0.169922 4.99959V41.9546C0.169922 44.5993 2.3168 46.7432 4.96512 46.7432H15.9094C18.5577 46.7432 20.7046 44.5993 20.7046 41.9546V4.99959C20.7046 2.35489 18.5577 0.210938 15.9094 0.210938Z" fill="white"/>
<path d="M13.6662 1.53809C12.9956 1.53816 12.5039 1.54075 12.4734 1.54493L12.3996 1.55505L12.5605 1.6246C12.7721 1.71604 13.0068 1.8574 13.1317 1.96869C13.1871 2.018 13.2771 2.1256 13.3317 2.2078C13.4077 2.32218 13.4468 2.36271 13.4982 2.38049C13.6615 2.43701 13.7842 2.56812 13.8934 2.80302C13.9771 2.98312 14.0078 3.15763 14.0082 3.45646C14.0087 3.87054 13.9145 4.24308 13.6899 4.71515L13.5877 4.92995L13.6614 5.01418C13.8176 5.19277 13.7855 5.35694 13.5066 5.80534C13.4405 5.9117 13.3659 6.0388 13.3408 6.08779C13.2661 6.23408 13.1959 6.30292 13.0819 6.34166L12.9778 6.37705L12.8429 6.63731C12.5156 7.26822 12.2679 7.60403 12.0576 7.70181C12.0182 7.72016 11.9758 7.74828 11.9634 7.76428C11.9261 7.81239 11.8951 7.94074 11.8959 8.04373C11.8973 8.22548 11.9092 8.23745 12.2583 8.40964C12.6157 8.58591 12.8857 8.74453 13.0581 8.87955C13.1675 8.96522 13.1763 8.97781 13.1763 9.04958C13.1763 9.11311 13.1858 9.133 13.2295 9.1601C13.3831 9.25553 13.5094 9.34077 13.6328 9.43217C13.7082 9.48809 13.8868 9.61211 14.0295 9.70772C14.3614 9.93 14.5387 10.0742 14.7446 10.2896C15.392 10.9665 15.7483 11.9578 15.8464 13.355C15.8573 13.5104 15.8663 13.8761 15.8664 14.1678L15.8665 14.6981L15.9333 14.9664C16.0018 15.2423 16.0718 15.6078 16.1765 16.238C16.2487 16.6721 16.3189 17.012 16.3726 17.1885C16.3945 17.2603 16.5172 17.5338 16.6453 17.7963C16.943 18.4064 17.043 18.6388 17.1611 18.9943C17.2563 19.2809 17.3346 19.6287 17.365 19.9001C17.4418 20.5841 17.554 21.1294 17.6367 21.2204C17.6492 21.2341 17.759 21.2716 17.8807 21.3037C18.0024 21.3358 18.1562 21.3875 18.2224 21.4187C18.3359 21.4721 18.3463 21.4828 18.4062 21.6081L18.4697 21.7409L18.6923 21.854C18.8147 21.9162 18.9397 21.9907 18.9699 22.0196C19.0412 22.0876 19.0944 22.1932 19.1108 22.2991C19.118 22.3456 19.1509 22.4231 19.1838 22.4713C19.3152 22.6637 19.5109 23.0311 19.5294 23.1202C19.532 23.1329 19.5365 19.0585 19.5392 14.066C19.5448 4.0873 19.5528 4.79479 19.4285 4.30952C19.3255 3.90771 19.1504 3.51769 18.9162 3.16868C18.344 2.31626 17.4723 1.76062 16.4183 1.57698C16.2452 1.54681 16.0306 1.54283 14.3861 1.53917C14.1332 1.5386 13.8898 1.53834 13.6663 1.53837L13.6662 1.53809ZM13.3874 13.881C13.2911 13.881 12.6011 14.2975 12.1967 14.5997C12.0412 14.716 12.018 14.742 11.9546 14.8706C11.8568 15.0689 11.487 16.0016 11.0995 17.0268L10.9227 17.4943L10.9156 17.7134C10.909 17.9156 10.9112 17.9326 10.944 17.9328C10.9987 17.9331 11.1633 18.036 11.2616 18.1315C11.4559 18.3203 11.575 18.5585 11.7315 19.0721C11.8551 19.4775 12.1534 20.5267 12.4043 21.4388L12.6581 22.3617L12.7379 22.6516L12.6247 22.761L12.5115 22.8705L12.5566 23.0361C12.5814 23.1271 12.6268 23.2937 12.6574 23.4062C13.0182 24.7318 13.1854 25.6963 13.3511 27.4093C13.4302 28.2266 13.4897 28.5099 13.6789 28.9684C13.8618 29.4116 14.0596 29.805 14.3096 30.2227C14.6649 30.8165 14.8666 31.2409 14.9794 31.6327C15.0918 32.0229 15.236 32.755 15.4021 33.7789C15.6196 35.1203 15.6962 35.5685 15.7292 35.6949C15.7599 35.8127 15.7923 35.8702 15.9475 36.082C16.2123 36.4432 16.2743 36.539 16.4049 36.7884C16.6176 37.1943 16.6712 37.4391 16.614 37.7428C16.5969 37.8339 16.5477 38.0531 16.5048 38.2298C16.2998 39.073 16.2614 39.4758 16.3488 39.8681C16.3596 39.9166 16.4037 40.1722 16.4469 40.4362C16.534 40.9682 16.5903 41.1916 16.6654 41.302C16.7314 41.3991 16.7958 41.5971 16.7952 41.7014C16.7949 41.7473 16.7776 41.823 16.7565 41.8697C16.7355 41.9164 16.7182 41.9681 16.7182 41.9845C16.7182 42.0009 16.8049 42.2783 16.9109 42.6009C17.0168 42.9234 17.1255 43.2662 17.1525 43.3626C17.3664 44.1277 17.3619 44.748 17.1394 45.1937C16.9866 45.4997 16.7982 45.7049 16.4547 45.9393C16.4236 45.9605 16.4325 45.9625 16.515 45.9526C16.6436 45.9371 16.8824 45.876 17.0909 45.8054C17.6296 45.6229 18.1698 45.2661 18.5774 44.8236C19.0996 44.2565 19.4397 43.5025 19.5236 42.7254C19.5376 42.5956 19.544 39.8754 19.5438 34.0571L19.5437 25.578L19.4818 25.7143C19.4025 25.8892 19.2134 26.209 19.1061 26.3501C18.7977 26.7554 18.3736 27.1008 17.9136 27.3214C16.8308 27.8407 15.5706 27.7315 14.5892 27.0334C14.3544 26.8663 13.9973 26.5068 13.8302 26.2693C13.1478 25.299 13.0323 24.0418 13.5265 22.9619C13.899 22.1481 14.6434 21.4854 15.4794 21.2235C15.5911 21.1885 15.6903 21.153 15.6998 21.1446C15.7219 21.125 15.6757 21.0095 15.4198 20.4452C15.2162 19.9952 14.948 19.4369 14.5076 18.5446C14.2665 18.0555 14.2307 17.9501 14.0878 17.3091C13.9514 16.6958 13.7251 15.5257 13.5248 14.3968C13.4296 13.8609 13.4348 13.8806 13.3876 13.8806L13.3874 13.881Z" fill="black"/>
<path d="M8.00671 1.53114C6.43634 1.53204 4.83732 1.53894 4.70555 1.55095C3.82858 1.63094 3.07634 1.97291 2.45699 2.57309C1.85863 3.15298 1.51153 3.81977 1.35661 4.68699C1.32573 4.85986 1.32323 6.05379 1.31711 23.4947C1.31267 36.1463 1.31698 42.2323 1.33057 42.4769C1.38515 43.4604 1.72832 44.2418 2.40457 44.9226C3.04276 45.5651 3.84564 45.937 4.73428 46.0016C4.9978 46.0208 15.8477 46.0262 15.8469 46.0071C15.8466 45.9993 15.7936 45.9578 15.729 45.915C15.4847 45.7528 15.2896 45.4841 15.2182 45.2113C15.1314 44.8801 15.1363 44.5046 15.2384 43.6554C15.3278 42.9124 15.3824 42.3221 15.3955 41.9597L15.4083 41.6023L15.3037 41.4883C15.0818 41.2464 15.037 41.0672 15.1383 40.8265C15.1664 40.7599 15.1893 40.6843 15.1893 40.6586C15.1893 40.5877 15.086 40.253 14.99 40.0127C14.878 39.7326 14.7107 39.3985 14.4518 38.9378C14.0804 38.277 14.0048 38.0989 14.0028 37.8797C14.0015 37.7416 14.0281 37.6721 14.1249 37.5612L14.1823 37.4954L14.1268 37.332C14.0534 37.1158 13.9776 36.9272 13.8243 36.5791L13.6975 36.2913L13.5217 36.1863C12.8121 35.7617 11.9502 35.1052 11.1065 34.3436C10.8562 34.1176 10.4107 33.6852 10.041 33.3112C9.81214 33.0789 9.4594 32.7424 9.25714 32.5633C8.8965 32.244 8.76065 32.1035 8.69974 31.9868C8.68296 31.9546 8.61927 31.8714 8.55817 31.8017C7.77191 30.9056 6.0041 28.2816 5.4137 27.1345C5.34811 27.007 5.29257 26.9005 5.29032 26.8979C5.28806 26.8953 5.07899 26.8631 4.82568 26.8263C4.57236 26.7896 4.35871 26.7523 4.35093 26.7435C4.34313 26.7346 4.3048 26.6192 4.26576 26.4869C4.1123 25.9669 3.91607 25.5299 3.35472 24.458C2.55391 22.929 2.34581 22.1579 2.46353 21.1562C2.53903 20.5138 2.75131 19.5033 2.85886 19.2747C2.92367 19.1368 3.07369 18.951 3.30375 18.7234L3.5182 18.5107V18.2739V18.0371L3.00045 18.0367C2.31459 18.036 2.11811 18.0066 1.97408 17.8825C1.88728 17.8077 1.87122 17.7671 1.79478 17.4289C1.77219 17.329 1.72307 17.1712 1.68561 17.0783C1.53453 16.7036 1.52504 16.5582 1.62992 16.2249C1.66654 16.1085 1.7107 15.957 1.72806 15.8883C1.88349 15.2729 2.27586 14.3393 3.03459 12.7797C3.16489 12.5119 3.30014 12.2095 3.33514 12.1077C3.56703 11.4337 3.78662 10.8993 4.01551 10.4519C4.52189 9.46222 4.9105 8.87178 5.31104 8.48375C5.51657 8.28458 5.66931 8.17714 5.90612 8.06518C6.22679 7.91356 6.46501 7.86516 7.2437 7.79331L7.76598 7.7451L7.82434 7.67845L7.88267 7.61179L8.13428 7.59969C8.96786 7.55955 9.26815 7.45395 9.41056 7.15095C9.48119 7.00068 9.512 6.83903 9.58641 6.22816C9.62381 5.9211 9.65639 5.65673 9.65884 5.64066C9.66158 5.62261 9.65051 5.6136 9.62988 5.61707C9.4527 5.64686 9.30346 5.24993 9.29815 4.73488C9.29386 4.31724 9.35463 4.22271 9.64118 4.20124L9.79873 4.18916L9.80299 4.04306C9.81234 3.72488 9.85171 3.26233 9.88748 3.05061C9.96966 2.5641 10.0791 2.32564 10.3392 2.06591C10.5287 1.87671 10.7199 1.75087 11.0012 1.63013C11.0992 1.5881 11.153 1.5554 11.1388 1.54655C11.1196 1.53457 9.57707 1.52946 8.00639 1.53038L8.00671 1.53114ZM3.63438 36.9649H4.25172H4.86906L4.89957 37.1353C4.91636 37.2291 4.97436 37.5512 5.02844 37.8512C5.08252 38.1512 5.16113 38.5895 5.20313 38.8252C5.24512 39.0609 5.35783 39.6876 5.45359 40.2179C5.54937 40.7483 5.67277 41.4342 5.72781 41.7422C5.78285 42.0502 5.83118 42.2989 5.83521 42.2948C5.84132 42.2887 5.81242 41.777 5.77344 41.2016C5.75915 40.9907 5.74645 40.7745 5.73405 40.5296C5.72781 40.4064 5.71923 40.253 5.71496 40.1887C5.71069 40.1244 5.7019 39.9097 5.69542 39.7115C5.68893 39.5133 5.67989 39.3073 5.67534 39.2537C5.6708 39.2001 5.66171 38.6632 5.65512 38.0606L5.64314 36.9649H6.04194H6.44079V40.325V43.6851H5.87427H5.30779L5.21408 43.1738C5.16253 42.8925 5.05645 42.3162 4.97833 41.893C4.90023 41.4698 4.77878 40.808 4.70847 40.4223C4.52518 39.4171 4.43208 38.9167 4.37868 38.6497L4.33195 38.416L4.34106 38.601C4.34609 38.7028 4.35895 39.0447 4.3696 39.3607C4.38026 39.6768 4.39325 40.0405 4.39848 40.1691C4.40529 40.3364 4.41397 43.2359 4.40892 43.6511C4.40853 43.6824 4.37701 43.6852 4.02142 43.6852H3.63432V40.325L3.63438 36.9649ZM7.06018 36.9649L7.77148 36.965C8.16268 36.965 8.53939 36.974 8.60857 36.9847C9.02685 37.0498 9.32391 37.2852 9.4584 37.658C9.55094 37.9146 9.56061 38.0442 9.5523 38.9128C9.54588 39.5839 9.5398 39.7192 9.51155 39.8186C9.45623 40.0133 9.38302 40.1429 9.25821 40.2668L9.1403 40.3839L9.24807 40.4908C9.37389 40.6156 9.44422 40.7355 9.50415 40.9272C9.54591 41.0609 9.54728 41.0915 9.54728 41.8834C9.54728 42.7984 9.54548 42.8139 9.4059 43.1009C9.27653 43.3668 9.05141 43.5469 8.73297 43.6393C8.63567 43.6675 8.49995 43.6738 7.83921 43.6804L7.06018 43.6902V40.3281V36.9659V36.9649ZM10.6425 36.9649H11.2787H11.9148L11.9261 37.0379C11.9323 37.0781 11.9856 37.5317 12.0446 38.046C12.1035 38.5602 12.2253 39.6165 12.3152 40.3932C12.6605 43.3774 12.6924 43.654 12.6924 43.6696C12.6924 43.6774 12.4838 43.6852 12.2287 43.6852H11.765L11.7551 43.6219C11.7496 43.587 11.7274 43.3306 11.7059 43.0521C11.6843 42.7736 11.6614 42.4952 11.655 42.4336L11.6434 42.3216H11.2488C10.8553 42.3216 10.8543 42.3218 10.8454 42.3654C10.8404 42.3896 10.818 42.646 10.7955 42.9352C10.7729 43.2245 10.7495 43.5116 10.7433 43.5732L10.732 43.6852H10.2896H9.84718V43.6269C9.84718 43.5788 9.97955 42.4493 10.1086 41.3962C10.1243 41.2677 10.2374 40.321 10.3599 39.2925C10.6133 37.1639 10.6193 37.114 10.6327 37.028L10.6425 36.9647L10.6425 36.9649ZM11.2236 37.7192C11.2207 37.7192 11.2177 37.7223 11.2144 37.7259C11.2102 37.7305 11.2013 37.8132 11.1946 37.9096C11.188 38.0061 11.178 38.1419 11.1725 38.2116C11.1669 38.2812 11.1363 38.6888 11.1045 39.1174C11.0727 39.5459 11.0154 40.2583 10.9773 40.7005C10.9391 41.1426 10.9121 41.5152 10.9171 41.5284C10.9239 41.546 11.0111 41.5523 11.2464 41.5523C11.4224 41.5523 11.5716 41.5472 11.5778 41.5409C11.5841 41.5347 11.5633 41.2366 11.5316 40.8786C11.2778 38.0058 11.2522 37.719 11.2236 37.7192ZM7.95049 37.8185V38.9173C7.95049 39.5217 7.95413 40.0198 7.95858 40.0243C7.96303 40.0288 8.07408 40.0294 8.20536 40.0257C8.47995 40.018 8.54743 39.9954 8.61308 39.8891L8.65683 39.819V38.9327C8.65683 38.0814 8.65529 38.0438 8.61812 37.9802C8.54101 37.8485 8.49971 37.8328 8.21035 37.8257L7.95041 37.8179L7.95049 37.8185ZM7.95049 40.7582V41.7929V42.8277H8.17866C8.45477 42.8277 8.55105 42.7913 8.61709 42.6621C8.65538 42.5872 8.65693 42.5535 8.65693 41.7856C8.65693 41.0187 8.65538 40.9842 8.61769 40.9187C8.55395 40.808 8.46244 40.7756 8.18757 40.7662L7.95048 40.7604L7.95049 40.7582Z" fill="black"/>
</g>
<defs>
<clipPath id="clip0_127421_583">
<rect width="21" height="47" fill="white"/>
</clipPath>
</defs>
</svg>
