<svg width="60" height="60" viewBox="0 0 60 60" fill="none" xmlns="http://www.w3.org/2000/svg">
<path d="M38.411 49.6463C36.2208 49.6463 36.3129 46.8396 36.3129 43.6095C36.3129 40.3702 36.6165 37.5819 38.411 37.5819C40.6104 37.5819 40.73 40.3794 40.73 43.6095C40.73 46.8396 40.2791 49.6463 38.411 49.6463ZM41.1257 33.7813C39.1656 33.7813 37.1595 34.5635 36.1104 36.2015H36.0736L36.2668 33.358C36.3773 31.4439 36.819 26.2261 39.4785 26.2261C40.7576 26.2261 40.4724 27.9193 40.6104 28.6923C40.9601 30.496 41.7515 32.5666 44.2178 32.5666C45.9018 32.5666 47.6687 31.4531 47.6687 29.1709C47.6687 25.6555 44.7239 23.3457 41.1625 23.3457C31.9969 23.3457 28.3159 30.3396 28.3159 38.8058C28.3159 46.1586 31.1687 52.5083 39.046 52.5083C44.1533 52.5083 48.3036 48.8733 48.3036 42.7629C48.3036 37.6095 45.5797 33.7813 41.1257 33.7813Z" fill="#003DA6"/>
<path d="M10.8682 23.1988V34.1129C16.9786 35.0147 24.2761 34.4166 29.4387 26.8705C29.6504 26.5485 29.7792 26.7785 29.6412 27.0546C28.1964 29.9902 24.7915 32.6957 21.8467 35.0147C19.0123 37.2417 11.4203 45.211 11.5215 52.2141C11.5307 52.7571 11.5491 52.6098 12.0185 52.2509C14.3283 50.5393 18.8375 50.484 21.6074 51.8092C21.9939 51.9932 22.0215 51.938 21.9755 51.4319C21.4418 46.0025 22.6657 40.0669 24.9939 36.6251C26.6044 34.2509 30.9203 28.1037 31.6565 23.2816C31.7301 22.7847 31.4725 22.8583 30.8559 23.5209C25.9602 28.6834 17.1258 28.5638 11.4203 23.0883C11.0614 22.7386 10.8958 22.8951 10.8682 23.1988Z" fill="#DD0031"/>
<path d="M21.4601 6.56055L21.8098 7.67404H22.997L22.0307 8.37343L22.3804 9.46852L21.4601 8.79674L20.5307 9.46852L20.8712 8.36423L19.9233 7.67404H21.1013L21.4601 6.56055Z" fill="#003DA6"/>
<path d="M28.4264 10.6191L28.7853 11.7234H29.9724L29.0061 12.432L29.365 13.5179L28.4264 12.8461L27.4969 13.5179L27.8558 12.432L26.8804 11.7234H28.0675L28.4264 10.6191Z" fill="#003DA6"/>
<path d="M25.4357 7.49023L25.7946 8.59453H26.9817L26.0247 9.29392L26.3652 10.3982L25.4449 9.71723L24.5155 10.3982L24.8652 9.29392L23.8989 8.59453H25.086L25.4357 7.49023Z" fill="#003DA6"/>
<path d="M29.5676 14.457L29.9173 15.5705H31.1044L30.1473 16.2699L30.497 17.365L29.5768 16.684L28.6381 17.365L28.997 16.2699L28.0308 15.5705H29.2087L29.5676 14.457Z" fill="#003DA6"/>
<path d="M29.0705 18.5156L29.4202 19.6199H30.6073L29.6503 20.3285L29.9999 21.4236L29.0705 20.7426L28.1503 21.4236L28.4907 20.3193L27.5337 19.6199H28.7116L29.0705 18.5156Z" fill="#003DA6"/>
<path d="M26.8254 21.7539L27.1751 22.8674H28.3622L27.4051 23.5668L27.7548 24.6527L26.8346 23.9809L25.9051 24.6527L26.2548 23.5668L25.2886 22.8674H26.4757L26.8254 21.7539Z" fill="#003DA6"/>
<path d="M23.3097 23.5684L23.6686 24.6727H24.8373L23.8802 25.3812L24.2391 26.4763L23.3097 25.8046L22.3802 26.4763L22.7299 25.3812L21.7637 24.6727H22.9508L23.3097 23.5684Z" fill="#003DA6"/>
<path d="M14.3649 10.2598L14.006 11.3641H12.8281L13.7852 12.0726L13.4355 13.1677L14.3557 12.4868L15.2944 13.1677L14.9447 12.0726L15.9109 11.3641H14.7238L14.3649 10.2598Z" fill="#003DA6"/>
<path d="M17.2824 7.49023L16.9235 8.59453H15.7456L16.7027 9.29392L16.353 10.3982L17.2824 9.71723L18.2119 10.3982L17.8622 9.29392L18.8284 8.59453H17.6413L17.2824 7.49023Z" fill="#003DA6"/>
<path d="M13.0031 13.9609L12.6534 15.0652H11.4663L12.4326 15.7646L12.0829 16.8689L13.0031 16.1971L13.9326 16.8689L13.5921 15.7646L14.5583 15.0652H13.3712L13.0031 13.9609Z" fill="#003DA6"/>
<path d="M13.3712 18.0098L13.0123 19.1233H11.8252L12.7915 19.8319L12.4418 20.9269L13.3712 20.246L14.3007 20.9269L13.9418 19.8319L14.908 19.1233H13.7209L13.3712 18.0098Z" fill="#003DA6"/>
<path d="M15.6071 21.3223L15.2574 22.4358H14.0703L15.0366 23.1351L14.6777 24.2302L15.6071 23.5493L16.5458 24.2302L16.1869 23.1351L17.1531 22.4358H15.966L15.6071 21.3223Z" fill="#003DA6"/>
<path d="M19.132 23.4297L18.7823 24.5432H17.5952L18.5523 25.2426L18.2026 26.3285L19.1228 25.6659L20.0615 26.3285L19.7026 25.2334L20.678 24.5432H19.4909L19.132 23.4297Z" fill="#003DA6"/>
</svg>
