<svg width="380" height="380" viewBox="0 0 380 380" fill="none" xmlns="http://www.w3.org/2000/svg">
<path opacity="0.985" fill-rule="evenodd" clip-rule="evenodd" d="M182.638 15.7542C227.812 14.4586 267.712 28.1017 302.338 56.6834C333.431 83.4127 353.039 117.006 361.159 157.463C368.79 200.707 361.613 241.294 339.625 279.221C316.281 317.386 283.214 343.221 240.429 356.725C212.037 365.144 183.326 366.41 154.296 360.525C113.905 351.655 80.6284 331.362 54.4668 299.646C26.6182 264.545 13.7932 224.487 15.9918 179.471C19.3379 134.023 37.2031 95.4687 69.5876 63.8084C101.353 34.2179 139.036 18.1998 182.638 15.7542Z" fill="#294C75"/>
<path fill-rule="evenodd" clip-rule="evenodd" d="M182.796 22.2461C228.206 21.0092 267.895 35.2328 301.862 64.9169C332.505 92.9177 350.686 127.619 356.408 169.021C361.234 212.629 351.101 252.319 326.008 288.088C300.729 322.316 267.241 344.245 225.546 353.875C185.753 362.091 147.807 356.92 111.704 338.359C78.7103 320.511 54.0894 294.678 37.8416 260.854C23.9604 230.503 19.3158 198.785 23.9083 165.696C30.1765 125.997 47.989 92.6156 77.3458 65.5503C107.365 38.9659 142.515 24.5312 182.796 22.2461Z" fill="#002B5C"/>
<path fill-rule="evenodd" clip-rule="evenodd" d="M202.113 33.1699C208.49 34.1288 214.876 35.0261 221.271 35.8616C221.925 38.3492 222.61 40.8298 223.329 43.3033C222.571 43.6885 221.779 43.926 220.954 44.0158C219.696 41.5435 217.849 39.6435 215.413 38.3158C214.233 37.8784 213.019 37.5882 211.771 37.4449C211.066 37.5423 210.566 37.9117 210.267 38.5533C209.939 40.183 209.649 41.8192 209.396 43.4616C210.021 43.5997 210.655 43.7051 211.296 43.7783C212.168 43.8131 212.881 43.4964 213.433 42.8283C213.749 42.0439 214.038 41.2522 214.304 40.4533C215.031 40.6325 215.77 40.7381 216.521 40.7699C216.046 44.2533 215.571 47.7366 215.096 51.2199C214.301 51.202 213.509 51.1491 212.721 51.0616C212.852 49.7397 212.563 48.5257 211.85 47.4199C211.041 46.8612 210.143 46.5445 209.158 46.4699C208.463 48.9499 208.147 51.4832 208.208 54.0699C208.406 54.5261 208.75 54.8163 209.238 54.9408C212.729 55.6118 215.843 54.8201 218.579 52.5658C219.344 51.8005 220.11 51.0351 220.875 50.2699C221.537 50.7064 222.17 51.1814 222.775 51.6949C221.398 54.2409 219.868 56.7215 218.183 59.1366C211.782 58.1358 205.37 57.1593 198.946 56.2074C198.849 56.0125 198.797 55.8015 198.788 55.5741C198.886 54.8584 198.992 54.1459 199.104 53.4366C200.298 53.6956 201.223 53.3262 201.875 52.3283C202.719 47.7352 203.432 43.1172 204.013 38.4741C204.079 36.9313 203.341 36.1132 201.796 36.0199C201.777 35.0492 201.883 34.0992 202.113 33.1699Z" fill="#294C75"/>
<path fill-rule="evenodd" clip-rule="evenodd" d="M168.229 34.5949C171.412 34.2692 174.474 34.7178 177.413 35.9408C180.38 37.7774 182.148 40.4428 182.717 43.9366C183.686 50.0491 181.338 54.2976 175.671 56.6824C174.373 57.1258 173.054 57.4952 171.713 57.7908C167.496 58.4494 163.275 59.0565 159.046 59.6116C158.938 58.6534 158.78 57.7034 158.571 56.7616C160.363 56.5529 161.155 55.5502 160.946 53.7533C160.482 50.003 159.98 46.2559 159.442 42.5116C159.325 41.6199 159.06 40.7755 158.65 39.9783C157.919 39.2884 157.048 39.0245 156.038 39.1866C155.956 38.249 155.956 37.3254 156.038 36.4158C160.132 35.8575 164.195 35.2506 168.229 34.5949Z" fill="#294C75"/>
<path fill-rule="evenodd" clip-rule="evenodd" d="M167.121 37.6048C172.294 37.2503 175.381 39.6253 176.383 44.7298C176.915 47.3468 176.547 49.8272 175.275 52.1715C173.505 54.4867 171.157 55.5158 168.229 55.259C167.425 54.8618 167.029 54.202 167.042 53.2798C166.405 48.8231 165.799 44.3635 165.221 39.9007C165.082 38.4834 165.715 37.7181 167.121 37.6048Z" fill="#002B5C"/>
<path fill-rule="evenodd" clip-rule="evenodd" d="M244.546 42.1953C247.937 43.5472 251.315 44.9459 254.679 46.3911C254.903 46.4494 255.061 46.5813 255.154 46.787C254.8 47.6554 254.404 48.4998 253.967 49.3203C252.787 48.735 251.785 48.946 250.958 49.9536C248.892 54.3319 246.967 58.7652 245.179 63.2536C245.217 63.8317 245.482 64.2803 245.971 64.5995C248.522 66.0131 251.161 66.1714 253.888 65.0745C255.126 64.5349 256.286 63.8753 257.371 63.0953C257.924 63.6748 258.451 64.2819 258.954 64.9161C256.81 67.0084 254.619 69.0403 252.383 71.012C246.824 68.5624 241.257 66.1347 235.679 63.7286C235.627 63.623 235.573 63.5176 235.521 63.412C235.817 62.6273 236.081 61.8356 236.313 61.037C236.987 61.2362 237.674 61.3153 238.371 61.2745C238.852 61.1112 239.248 60.8209 239.558 60.4036C241.481 56.4003 243.275 52.3366 244.942 48.212C245.236 47.4135 245.236 46.6218 244.942 45.837C244.517 45.3857 244.068 44.9636 243.596 44.5703C243.96 43.7915 244.277 42.9998 244.546 42.1953Z" fill="#294C75"/>
<path fill-rule="evenodd" clip-rule="evenodd" d="M127.854 46.1543C128.98 47.0942 130.088 48.0706 131.179 49.0835C134.825 52.7824 138.519 56.4241 142.262 60.0085C143.291 60.8329 144.452 61.0967 145.746 60.8001C146.115 61.5918 146.485 62.3835 146.854 63.1751C143.461 64.8077 140.031 66.3648 136.562 67.846C136.457 67.7932 136.351 67.7404 136.246 67.6876C135.929 66.9487 135.612 66.2099 135.296 65.471C135.891 65.1605 136.445 64.7909 136.958 64.3626C137.281 63.7556 137.228 63.175 136.8 62.621C135.929 61.7501 135.058 60.8793 134.187 60.0085C133.538 60.1193 132.905 60.3304 132.287 60.6418C130.704 61.3807 129.121 62.1195 127.537 62.8585C127.441 63.0534 127.388 63.2644 127.379 63.4918C127.534 64.6766 127.666 65.8641 127.775 67.0543C128.027 67.6503 128.476 67.9669 129.121 68.0043C129.722 67.9199 130.303 67.7616 130.862 67.5293C131.203 68.2104 131.546 68.8967 131.891 69.5876C131.997 69.746 131.997 69.9043 131.891 70.0626C128.989 71.382 126.086 72.7016 123.183 74.021C122.697 73.2494 122.301 72.4315 121.996 71.5668C122.441 71.1216 122.889 70.673 123.341 70.221C123.619 69.7862 123.777 69.3112 123.816 68.796C123.724 62.3824 123.539 55.9699 123.262 49.5585C123.315 49.1099 123.368 48.6612 123.421 48.2126C124.951 47.6054 126.429 46.9194 127.854 46.1543Z" fill="#294C75"/>
<path fill-rule="evenodd" clip-rule="evenodd" d="M126.746 52.6465C128.35 54.2776 129.934 55.9401 131.496 57.634C130.061 58.3764 128.61 59.0889 127.142 59.7715C126.869 57.4061 126.737 55.0311 126.746 52.6465Z" fill="#002B5C"/>
<path fill-rule="evenodd" clip-rule="evenodd" d="M281.754 61.5117C285.901 64.6266 289.938 67.8987 293.867 71.3284C297.036 74.9119 296.903 78.369 293.471 81.6992C291.024 83.389 288.491 83.4944 285.871 82.0159C283.896 80.6986 282.023 79.2471 280.25 77.6617C278.964 78.8627 277.908 80.2348 277.083 81.7784C276.885 82.1864 276.833 82.6085 276.925 83.0451C277.229 83.6401 277.625 84.1678 278.112 84.6284C277.579 85.3792 276.972 86.0653 276.292 86.6867C273.288 84.344 270.307 81.969 267.346 79.5617C267.892 78.9165 268.421 78.2567 268.929 77.5826C269.528 77.798 270.161 77.9828 270.829 78.1367C271.363 78.0913 271.838 77.9065 272.254 77.5826C275.197 74.2175 278.021 70.7606 280.725 67.2117C281.596 65.8339 281.41 64.62 280.171 63.5701C280.703 62.881 281.23 62.1949 281.754 61.5117Z" fill="#294C75"/>
<path fill-rule="evenodd" clip-rule="evenodd" d="M185.962 64.9956C219.942 64.5823 249.551 75.5865 274.787 98.0081C299.43 121.201 312.968 149.78 315.4 183.746C316.75 221.459 304.267 253.68 277.954 280.408C255.1 302.331 227.761 314.26 195.937 316.191C163.584 317.282 134.872 307.729 109.804 287.533C83.3685 265.04 68.3532 236.409 64.7582 201.637C62.2236 165.224 72.9375 133.398 96.8999 106.162C120.965 80.5029 150.652 66.7808 185.962 64.9956Z" fill="#294C75"/>
<path fill-rule="evenodd" clip-rule="evenodd" d="M89.2209 69.9048C89.4069 69.8702 89.5653 69.9229 89.6959 70.0632C90.1641 70.7427 90.6918 71.3761 91.2792 71.9632C89.9717 73.0519 89.8398 74.2658 90.8834 75.6048C93.4235 78.5141 95.904 81.4697 98.3251 84.4715C98.8846 85.0841 99.4915 85.6383 100.146 86.134C100.795 86.2346 101.375 86.0762 101.888 85.659C103.818 84.1482 104.953 82.169 105.292 79.7215C105.446 78.1436 105.367 76.5867 105.054 75.0507C105.798 74.7742 106.564 74.5367 107.35 74.3382C107.472 74.3611 107.578 74.4139 107.667 74.4965C108.592 77.2707 109.384 80.0679 110.042 82.8882C105.251 86.9333 100.474 90.9972 95.7126 95.0798C95.0772 94.4441 94.4967 93.7581 93.9709 93.0215C95.0697 91.9194 95.2016 90.7054 94.3667 89.3798C91.4255 85.7963 88.3908 82.2865 85.2626 78.8507C84.2809 78.2916 83.3838 78.4235 82.5709 79.2465C81.942 78.5646 81.3087 77.8784 80.6709 77.1882C83.5705 74.8162 86.4205 72.3883 89.2209 69.9048Z" fill="#294C75"/>
<path fill-rule="evenodd" clip-rule="evenodd" d="M185.171 69.9034C223.312 69.3079 255.216 82.9775 280.883 110.912C301.066 134.293 310.987 161.526 310.65 192.612C309.697 223.146 299.193 249.799 279.141 272.57C259.31 293.69 234.954 306.33 206.071 310.491C173.855 314.338 144.615 306.845 118.354 288.008C93.2792 269.098 77.5779 244.16 71.2498 213.195C65.2198 177.89 72.8198 145.907 94.0498 117.245C114.25 91.648 140.56 76.2633 172.979 71.0909C177.051 70.5355 181.116 70.1396 185.171 69.9034Z" fill="#002B5C"/>
<path fill-rule="evenodd" clip-rule="evenodd" d="M286.821 69.9043C289.102 70.3386 290.421 71.7109 290.779 74.021C290.038 77.7429 287.928 78.8248 284.446 77.2668C283.581 76.6919 282.79 76.0321 282.071 75.2876C283.499 73.3328 285.082 71.5385 286.821 69.9043Z" fill="#002B5C"/>
<path fill-rule="evenodd" clip-rule="evenodd" d="M185.487 77.5044C198.274 77.116 210.783 78.7785 223.012 82.4919C226.095 85.3604 228.497 88.7117 230.217 92.5461C231.844 96.9191 231.422 101.088 228.95 105.054C227.759 106.956 226.307 108.645 224.596 110.121C215.463 103.361 205.646 97.6875 195.146 93.1002C179.62 86.4135 163.47 84.0912 146.696 86.1336C159.157 81.0783 172.088 78.2018 185.487 77.5044Z" fill="#294C75"/>
<path fill-rule="evenodd" clip-rule="evenodd" d="M232.671 86.0547C246.721 91.7218 259.071 99.9024 269.721 110.596C262.057 116.66 254.43 122.782 246.842 128.963C241.078 123.409 235.036 118.21 228.712 113.367C237.291 105.332 238.61 96.2278 232.671 86.0547Z" fill="#294C75"/>
<path fill-rule="evenodd" clip-rule="evenodd" d="M312.787 90.0117C313.028 90.0135 313.212 90.1189 313.342 90.3284C315.427 93.3367 317.51 96.3451 319.596 99.3534C318.905 99.9375 318.166 100.465 317.379 100.937C316.746 99.934 315.85 99.5382 314.687 99.7492C313.223 100.521 311.823 101.392 310.492 102.362C310.385 102.52 310.385 102.678 310.492 102.837C312.07 105.101 313.707 107.318 315.4 109.487C316.828 108.693 318.149 107.743 319.358 106.637C320.104 105.598 320.077 104.569 319.279 103.549C320.044 102.995 320.81 102.441 321.575 101.887C323.785 105.013 325.975 108.153 328.146 111.308C327.435 111.848 326.695 112.35 325.929 112.812C325.231 111.934 324.333 111.591 323.237 111.783C321.892 112.39 320.625 113.129 319.437 113.999C316.678 115.92 313.959 117.899 311.283 119.937C310.585 120.934 310.558 121.963 311.204 123.024C310.541 123.635 309.828 124.189 309.067 124.687C306.856 121.56 304.666 118.42 302.496 115.266C303.207 114.673 303.944 114.119 304.712 113.603C305.164 114.029 305.639 114.425 306.137 114.791C306.733 114.908 307.314 114.855 307.879 114.633C309.583 113.557 311.245 112.422 312.867 111.228C312.917 111.005 312.863 110.794 312.708 110.595C311.177 108.405 309.621 106.242 308.037 104.103C306.587 105.172 305.11 106.201 303.604 107.191C303.097 107.645 302.648 108.146 302.258 108.695C302.152 109.064 302.152 109.434 302.258 109.803C302.431 110.248 302.589 110.67 302.733 111.07C301.994 111.598 301.256 112.126 300.517 112.653C298.358 109.524 296.221 106.384 294.104 103.233C294.761 102.63 295.474 102.076 296.242 101.57C296.876 102.64 297.801 103.036 299.012 102.758C303.127 100.172 307.113 97.401 310.967 94.4451C311.54 93.4407 311.461 92.4907 310.729 91.5951C311.423 91.0586 312.108 90.5307 312.787 90.0117Z" fill="#294C75"/>
<path fill-rule="evenodd" clip-rule="evenodd" d="M155.087 90.1704C168.98 89.967 182.227 92.7907 194.829 98.6412C203.868 102.815 212.366 107.829 220.321 113.683C215.811 116.597 211.008 118.972 205.912 120.808C196.803 123.877 187.514 126.252 178.046 127.933C170.829 129.249 163.598 130.489 156.354 131.654C156.851 133.33 157.3 135.018 157.7 136.72C167.669 135.028 177.617 133.207 187.546 131.258C196.811 129.383 205.784 126.586 214.462 122.866C218.099 121.207 221.53 119.228 224.754 116.929C230.954 121.781 236.944 126.901 242.725 132.287C242.831 132.393 242.831 132.498 242.725 132.604C229.632 143.795 216.728 155.221 204.012 166.883C205.078 168.213 205.949 169.665 206.625 171.237C206.739 171.387 206.87 171.414 207.021 171.316C220.053 159.338 233.274 147.595 246.683 136.087C252.584 141.878 257.888 148.132 262.596 154.85C256.647 161.127 252.082 168.332 248.9 176.462C247.549 179.88 246.389 183.364 245.417 186.912C243.646 194.096 241.984 201.273 240.429 208.445C242.31 207.877 244.183 207.296 246.05 206.704C247.605 200.431 249.136 194.149 250.642 187.862C253.047 178.408 257.216 169.858 263.15 162.212C263.938 161.238 264.809 160.341 265.762 159.52C274.96 173.623 280.845 189.034 283.417 205.754C285.595 206.157 287.495 207.107 289.117 208.604C286.678 189.62 280.266 172.124 269.879 156.116C272.523 153.905 275.584 152.665 279.062 152.395C282.242 152.508 285.039 153.59 287.454 155.641C291.829 159.486 295.497 163.892 298.458 168.862C299.793 170.949 301.006 173.113 302.1 175.354C305.346 200.557 300.806 224.255 288.483 246.445C288.507 245.544 288.559 244.647 288.642 243.754C286.971 245.21 285.071 246.266 282.942 246.92C282.24 251.031 281.342 255.095 280.25 259.112C260.723 284.281 235.046 298.98 203.221 303.208C198.909 303.762 194.582 303.974 190.237 303.841C199.807 298.865 208.013 292.19 214.858 283.812C220.77 275.952 225.679 267.455 229.583 258.32C231.464 254.049 233.152 249.72 234.65 245.337C232.653 246.441 230.543 247.232 228.317 247.712C225.357 255.48 221.822 262.975 217.708 270.195C211.101 281.975 201.943 291.238 190.237 297.983C186.266 300.206 182.097 301.948 177.729 303.208C163.102 301.762 149.327 297.541 136.404 290.541C125.948 284.813 116.554 277.661 108.221 269.087C114.019 262.841 119.903 256.666 125.875 250.562C125.98 250.456 125.98 250.351 125.875 250.245C124.152 249.337 122.332 248.782 120.412 248.583C115.13 254.023 109.905 259.513 104.737 265.05C104.632 265.156 104.526 265.156 104.421 265.05C86.221 243.709 77.0113 218.93 76.7915 190.712C79.6953 181.38 84.6564 173.357 91.6748 166.645C91.7276 164.587 91.7804 162.529 91.8332 160.47C91.888 160.198 91.9671 159.935 92.0707 159.679C91.9912 159.517 91.8857 159.49 91.754 159.6C86.133 164.285 81.4622 169.747 77.7415 175.987C80.6004 155.446 88.3587 137.027 101.017 120.729C108.165 111.468 116.531 103.525 126.112 96.8996C135.393 92.9297 145.051 90.6867 155.087 90.1704Z" fill="#294C75"/>
<path fill-rule="evenodd" clip-rule="evenodd" d="M67.2126 92.0703C68.0854 92.5338 68.877 93.1144 69.5876 93.812C68.7874 94.8058 68.761 95.8087 69.5085 96.8203C72.3849 99.0634 75.2612 101.306 78.1376 103.549C79.1134 104.314 80.1689 104.947 81.3043 105.449C81.7266 105.555 82.1487 105.555 82.571 105.449C83.0213 105.104 83.47 104.761 83.9168 104.42C84.6013 104.893 85.2873 105.368 85.9751 105.845C83.8541 109.029 81.5847 112.143 79.1668 115.187C78.4016 114.633 77.6362 114.079 76.871 113.524C77.9156 111.955 77.6519 110.636 76.0793 109.566C72.807 107.138 69.5349 104.711 66.2626 102.283C64.8395 101.363 63.652 101.6 62.7001 102.995C61.9349 102.441 61.1695 101.887 60.4043 101.333C62.7733 98.3063 65.0427 95.2188 67.2126 92.0703Z" fill="#294C75"/>
<path fill-rule="evenodd" clip-rule="evenodd" d="M126.746 112.021C127.158 113.02 127.528 114.049 127.854 115.109C129.015 115.162 130.176 115.215 131.338 115.267C130.353 115.943 129.403 116.656 128.488 117.405C128.895 118.388 129.185 119.391 129.358 120.413C128.539 119.793 127.694 119.212 126.825 118.671C125.929 119.25 125.032 119.83 124.133 120.413C124.324 119.366 124.614 118.337 125.004 117.326C124.107 116.64 123.21 115.953 122.312 115.267C123.477 115.241 124.638 115.161 125.796 115.03C126.114 114.023 126.431 113.02 126.746 112.021Z" fill="#002B5C"/>
<path fill-rule="evenodd" clip-rule="evenodd" d="M273.362 114.555C274.073 115.025 274.734 115.605 275.342 116.296C286.468 129.097 294.33 143.716 298.933 160.155C295.713 155.667 291.781 151.947 287.137 148.992C281.707 146.354 276.269 146.354 270.829 148.992C269.616 149.598 268.454 150.285 267.346 151.051C267.146 151.206 266.936 151.259 266.712 151.209C261.855 144.66 256.525 138.485 250.721 132.684C258.161 126.482 265.709 120.439 273.362 114.555Z" fill="#294C75"/>
<path fill-rule="evenodd" clip-rule="evenodd" d="M114.079 114.871C114.605 115.783 115.027 116.76 115.346 117.8C116.507 117.853 117.668 117.906 118.829 117.959C117.923 118.706 116.973 119.392 115.979 120.017C116.402 121.072 116.692 122.154 116.85 123.263C115.995 122.565 115.098 121.932 114.158 121.363C113.316 121.994 112.471 122.627 111.625 123.263C111.83 122.197 112.12 121.142 112.496 120.096C111.625 119.358 110.728 118.646 109.804 117.959C110.913 117.906 112.021 117.853 113.129 117.8C113.525 116.85 113.842 115.874 114.079 114.871Z" fill="#002B5C"/>
<path fill-rule="evenodd" clip-rule="evenodd" d="M138.621 114.871C139.081 115.827 139.45 116.83 139.729 117.879C140.891 117.853 142.053 117.879 143.213 117.959C142.342 118.618 141.471 119.278 140.6 119.938C140.741 121.021 141.031 122.077 141.471 123.104C141.418 123.157 141.365 123.21 141.313 123.263C140.453 122.609 139.582 121.976 138.7 121.363C137.814 121.872 136.996 122.479 136.246 123.184C136.114 123.293 136.009 123.266 135.929 123.104C136.369 122.077 136.659 121.021 136.8 119.938C135.943 119.259 135.073 118.599 134.188 117.959C135.347 117.879 136.509 117.853 137.671 117.879C137.924 116.855 138.241 115.852 138.621 114.871Z" fill="#002B5C"/>
<path fill-rule="evenodd" clip-rule="evenodd" d="M49.4793 118.354C50.3775 118.591 51.2483 118.908 52.0918 119.304C52.0295 120.037 52.0295 120.776 52.0918 121.52C52.3226 121.91 52.6128 122.253 52.9626 122.549C57.0147 124.445 61.1313 126.187 65.3126 127.774C65.9459 127.88 66.5793 127.88 67.2126 127.774C67.7688 127.316 68.2701 126.815 68.7168 126.27C69.5263 126.608 70.2917 127.004 71.0126 127.458C69.5974 130.947 68.1197 134.404 66.5793 137.829C65.7341 137.512 64.9424 137.116 64.2043 136.641C64.738 135.615 64.5797 134.718 63.7293 133.949C61.7761 132.92 59.7705 131.996 57.7126 131.179C56.4789 133.806 55.3705 136.498 54.3876 139.254C56.2602 139.887 58.1075 140.599 59.9293 141.391C60.5099 141.497 61.0903 141.497 61.6709 141.391C62.2886 140.985 62.7899 140.483 63.1751 139.887C64.004 140.156 64.7692 140.526 65.4709 140.995C64.1124 144.495 62.6345 147.925 61.0376 151.287C60.2228 150.879 59.3784 150.562 58.5043 150.337C58.7381 149.613 58.8173 148.874 58.7418 148.12C58.3079 147.414 57.701 146.913 56.9209 146.616C53.1917 145.042 49.4444 143.511 45.6793 142.024C44.0052 141.358 42.844 141.859 42.1959 143.529C41.4108 143.17 40.6191 142.827 39.8209 142.499C39.7383 142.411 39.6856 142.305 39.6626 142.183C41.1064 138.694 42.6106 135.237 44.1751 131.812C44.9853 132.196 45.8034 132.566 46.6293 132.92C46.131 133.921 46.2366 134.845 46.9459 135.691C48.4104 136.54 49.941 137.253 51.5376 137.829C52.7569 135.257 53.918 132.644 55.0209 129.991C53.6094 129.256 52.1315 128.676 50.5876 128.249C50.1126 128.144 49.6376 128.144 49.1626 128.249C48.5503 128.677 48.0226 129.179 47.5793 129.754C46.7369 129.543 45.998 129.174 45.3626 128.645C46.7813 125.228 48.1534 121.798 49.4793 118.354Z" fill="#294C75"/>
<path fill-rule="evenodd" clip-rule="evenodd" d="M105.529 123.104C105.942 124.103 106.311 125.133 106.637 126.191C107.798 126.244 108.96 126.297 110.121 126.349C109.136 127.025 108.186 127.738 107.271 128.487C107.698 129.479 108.041 130.482 108.3 131.495C107.401 130.912 106.504 130.332 105.608 129.754C104.66 130.254 103.763 130.835 102.917 131.495C103.043 130.43 103.333 129.4 103.787 128.408C102.89 127.722 101.993 127.035 101.096 126.349C102.256 126.27 103.417 126.244 104.579 126.27C104.847 125.198 105.164 124.142 105.529 123.104Z" fill="#002B5C"/>
<path fill-rule="evenodd" clip-rule="evenodd" d="M148.754 127.221C149.81 127.327 150.865 127.432 151.921 127.538C151.051 128.17 150.26 128.883 149.546 129.675C149.886 130.64 150.123 131.616 150.258 132.605C149.41 131.941 148.539 131.307 147.646 130.705C146.753 131.307 145.882 131.941 145.033 132.605C145.266 131.539 145.529 130.483 145.825 129.438C144.954 128.778 144.083 128.118 143.212 127.459C144.321 127.406 145.429 127.353 146.537 127.3C146.87 126.26 147.24 125.23 147.646 124.213C148.042 125.222 148.411 126.225 148.754 127.221Z" fill="#002B5C"/>
<path fill-rule="evenodd" clip-rule="evenodd" d="M148.754 127.221C149.868 127.168 150.976 127.221 152.079 127.379C152.06 127.475 152.007 127.528 151.921 127.537C150.865 127.432 149.81 127.326 148.754 127.221Z" fill="#002B5C"/>
<path fill-rule="evenodd" clip-rule="evenodd" d="M336.221 129.597C336.43 129.57 336.615 129.622 336.775 129.755C338.091 133.227 339.437 136.684 340.813 140.126C339.975 140.484 339.13 140.827 338.279 141.155C337.891 140.477 337.364 139.923 336.696 139.492C335.757 139.383 334.859 139.541 334.004 139.967C330.244 141.414 326.498 142.892 322.763 144.401C322.261 144.691 321.865 145.087 321.575 145.588C321.502 146.282 321.502 146.968 321.575 147.647C320.799 147.994 320.008 148.31 319.2 148.597C317.739 145.219 316.368 141.789 315.083 138.305C314.965 138.125 314.992 137.967 315.163 137.83C315.954 137.513 316.746 137.197 317.538 136.88C318.04 138.213 318.99 138.767 320.388 138.542C324.96 137.142 329.394 135.4 333.688 133.317C333.931 133.067 334.117 132.777 334.242 132.447C334.324 131.801 334.324 131.168 334.242 130.547C334.923 130.245 335.583 129.929 336.221 129.597Z" fill="#294C75"/>
<path fill-rule="evenodd" clip-rule="evenodd" d="M101.412 134.188C101.903 135.185 102.273 136.241 102.521 137.354C103.683 137.328 104.844 137.354 106.004 137.433C105.043 138.071 104.146 138.784 103.312 139.571C103.689 140.618 103.979 141.674 104.183 142.737C103.284 142.049 102.387 141.363 101.492 140.679C100.596 141.363 99.6989 142.049 98.7998 142.737C99.0679 141.693 99.3583 140.637 99.6707 139.571C98.8435 138.786 97.9463 138.073 96.979 137.433C98.1917 137.354 99.4056 137.328 100.621 137.354C100.786 136.27 101.05 135.215 101.412 134.188Z" fill="#002B5C"/>
<path fill-rule="evenodd" clip-rule="evenodd" d="M150.813 135.613C151.011 135.625 151.142 135.731 151.208 135.93C151.548 136.869 151.838 137.819 152.079 138.78C153.242 138.754 154.403 138.78 155.563 138.859C154.595 139.499 153.698 140.211 152.871 140.997C153.248 142.045 153.538 143.101 153.742 144.163C152.907 143.47 152.036 142.836 151.129 142.263C150.144 142.798 149.221 143.432 148.358 144.163C148.626 143.119 148.917 142.063 149.229 140.997C149.064 140.727 148.853 140.489 148.596 140.284C147.882 139.848 147.196 139.373 146.538 138.859C147.698 138.78 148.859 138.754 150.021 138.78C150.285 137.723 150.549 136.668 150.813 135.613Z" fill="#002B5C"/>
<path fill-rule="evenodd" clip-rule="evenodd" d="M102.521 146.221C102.96 147.179 103.33 148.182 103.629 149.229C104.787 149.361 105.948 149.44 107.112 149.467C106.227 150.107 105.356 150.767 104.5 151.446C104.7 152.573 104.964 153.681 105.292 154.771C104.437 154.073 103.539 153.44 102.6 152.871C101.757 153.502 100.913 154.135 100.067 154.771C100.207 153.687 100.497 152.632 100.937 151.604C99.9687 150.927 99.0187 150.215 98.0874 149.467C99.2485 149.414 100.41 149.361 101.571 149.308C101.935 148.295 102.252 147.266 102.521 146.221Z" fill="#002B5C"/>
<path fill-rule="evenodd" clip-rule="evenodd" d="M149.546 147.805C149.927 148.762 150.296 149.738 150.654 150.734C151.762 150.787 152.871 150.839 153.979 150.892C153.075 151.659 152.178 152.424 151.287 153.188C151.696 154.173 151.986 155.176 152.158 156.196C151.339 155.576 150.494 154.995 149.625 154.455C148.734 155.002 147.863 155.582 147.012 156.196C147.113 155.173 147.377 154.144 147.804 153.109C146.854 152.37 145.904 151.631 144.954 150.892C146.167 150.813 147.381 150.787 148.596 150.813C148.849 149.788 149.166 148.786 149.546 147.805Z" fill="#002B5C"/>
<path fill-rule="evenodd" clip-rule="evenodd" d="M109.171 156.195C109.723 157.166 110.093 158.221 110.279 159.362C111.494 159.335 112.708 159.362 113.921 159.441C112.873 160.041 111.923 160.754 111.071 161.579C111.394 162.575 111.763 163.551 112.179 164.508C112.073 164.614 111.968 164.614 111.862 164.508C111.078 163.854 110.234 163.3 109.329 162.845C108.388 163.388 107.464 163.969 106.558 164.587C106.832 163.553 107.175 162.524 107.587 161.499C106.684 160.757 105.734 160.07 104.737 159.441C105.898 159.389 107.06 159.335 108.221 159.283C108.585 158.269 108.901 157.24 109.171 156.195Z" fill="#002B5C"/>
<path fill-rule="evenodd" clip-rule="evenodd" d="M142.738 157.463C143.286 158.422 143.656 159.477 143.846 160.63C145.061 160.603 146.275 160.63 147.488 160.709C146.522 161.31 145.598 161.971 144.717 162.688C144.89 163.711 145.18 164.713 145.588 165.696C145.535 165.748 145.482 165.802 145.429 165.855C144.634 165.194 143.789 164.613 142.896 164.113C141.991 164.567 141.147 165.121 140.363 165.775C140.257 165.881 140.151 165.881 140.046 165.775C140.377 164.808 140.694 163.833 140.996 162.846C140.169 162.061 139.271 161.348 138.304 160.709C139.464 160.63 140.625 160.603 141.788 160.63C142.136 159.585 142.452 158.53 142.738 157.463Z" fill="#002B5C"/>
<path fill-rule="evenodd" clip-rule="evenodd" d="M95.3959 160.788C95.7371 160.768 96.0538 160.847 96.3459 161.026C107.606 171.674 120.906 175.686 136.246 173.059C144.243 171.253 150.946 167.294 156.354 161.184C156.646 161.005 156.963 160.926 157.304 160.947C157.108 163.211 156.659 165.428 155.958 167.597C153.579 174.465 150.518 181.011 146.775 187.23C143.067 193.115 139.32 198.974 135.533 204.805C130.424 215.097 127.917 225.995 128.013 237.501C128.086 240.802 128.165 244.1 128.25 247.397C128.03 247.563 127.793 247.59 127.538 247.476C124.136 245.834 120.547 244.884 116.771 244.626C110.812 243.939 105.165 244.941 99.8292 247.634C98.8873 248.198 98.0165 248.858 97.2167 249.613C96.9411 244.366 97.7856 239.3 99.7501 234.413C102.159 228.433 105.22 222.839 108.933 217.63C113.273 211.58 118.155 205.959 123.579 200.768C128.019 197.013 132.505 193.32 137.038 189.684C141.632 185.777 145.722 181.422 149.308 176.622C150.123 175.358 150.835 174.039 151.446 172.663C151.221 172.065 150.931 172.065 150.575 172.663C139.406 188.736 123.969 196.257 104.263 195.226C101.242 195.03 98.2332 194.713 95.2376 194.276C95.0531 183.283 95.0268 172.279 95.1584 161.263C95.2396 161.1 95.3188 160.942 95.3959 160.788Z" fill="#002B5C"/>
<path fill-rule="evenodd" clip-rule="evenodd" d="M325.137 160.787C325.402 160.787 325.665 160.787 325.929 160.787C326.252 162.458 327.256 163.487 328.937 163.875C335.155 165.588 341.382 167.25 347.621 168.862C347.868 170.412 348.08 171.969 348.254 173.533C348.248 173.812 348.194 174.076 348.096 174.325C342.356 177.376 336.656 180.489 330.996 183.666C329.819 184.357 329.238 185.386 329.254 186.754C328.313 186.933 327.363 187.039 326.404 187.07C326.045 183.359 325.57 179.665 324.979 175.987C325.899 175.645 326.849 175.433 327.829 175.354C327.84 176.087 328.025 176.772 328.383 177.412C329.01 177.795 329.669 177.822 330.362 177.491C331.338 177.031 332.288 176.529 333.212 175.987C333.396 175.414 333.423 174.833 333.291 174.245C333.01 172.401 332.747 170.553 332.5 168.704C332.421 168.625 332.341 168.545 332.262 168.466C330.806 168.08 329.328 167.922 327.829 167.991C327.476 168.186 327.238 168.476 327.116 168.862C327.037 169.494 327.01 170.127 327.037 170.762C326.146 170.746 325.275 170.852 324.425 171.079C323.988 167.757 323.592 164.432 323.237 161.104C323.904 161.069 324.537 160.964 325.137 160.787Z" fill="#294C75"/>
<path fill-rule="evenodd" clip-rule="evenodd" d="M182.479 162.054C187.327 161.623 191.919 162.494 196.254 164.667C201.85 167.922 204.806 172.803 205.121 179.312C205.053 184.544 202.519 187.896 197.521 189.367C191.846 190.554 187.809 188.523 185.408 183.271C184.197 180.332 183.618 177.27 183.667 174.087C183.266 171.074 181.604 170.045 178.679 171C176.868 171.809 175.522 173.103 174.642 174.879C172.689 179.149 171.581 183.637 171.317 188.337C170.972 192.4 170.707 196.465 170.525 200.529C174.238 195.678 179.172 193.303 185.329 193.404C192.757 193.331 198.484 196.392 202.508 202.587C205.951 208.623 207.376 215.115 206.783 222.062C206.514 230.435 203.321 237.429 197.204 243.042C190.88 247.948 183.703 250.007 175.671 249.217C164.152 248.091 156.051 242.259 151.367 231.721C148.882 225.579 147.51 219.192 147.25 212.562C146.561 202.928 147.881 193.586 151.208 184.537C157.029 170.661 167.452 163.167 182.479 162.054Z" fill="#002B5C"/>
<path fill-rule="evenodd" clip-rule="evenodd" d="M119.779 162.371C120.207 163.389 120.576 164.445 120.887 165.538C122.045 165.669 123.206 165.748 124.371 165.775C123.399 166.404 122.449 167.064 121.521 167.754C121.913 168.796 122.203 169.851 122.392 170.921C121.547 170.288 120.703 169.654 119.858 169.021C119.01 169.685 118.139 170.318 117.246 170.921C117.193 170.869 117.14 170.815 117.087 170.763C117.388 169.783 117.704 168.806 118.037 167.834C117.174 167.11 116.276 166.424 115.346 165.775C116.454 165.723 117.562 165.669 118.671 165.617C119.087 164.551 119.457 163.47 119.779 162.371Z" fill="#002B5C"/>
<path fill-rule="evenodd" clip-rule="evenodd" d="M39.0294 163.004C41.403 162.671 43.5668 163.172 45.5211 164.508C46.9564 166.069 47.6424 167.915 47.5794 170.05C47.3878 172.243 47.1766 174.432 46.9461 176.621C48.7696 177.051 50.6169 177.183 52.4877 177.016C53.4536 176.644 53.9286 175.932 53.9127 174.879C54.8681 174.941 55.8181 175.045 56.7627 175.196C56.2747 178.942 55.7997 182.688 55.3377 186.437C54.4382 186.417 53.541 186.363 52.6461 186.279C52.8736 184.646 52.1875 183.67 50.5877 183.35C45.9064 182.666 41.2092 182.191 36.4961 181.925C35.563 182.39 35.088 183.155 35.0711 184.221C34.1819 184.056 33.2846 183.95 32.3794 183.904C32.8071 179.733 33.2556 175.564 33.7252 171.395C33.8606 168.503 34.9427 166.049 36.9711 164.033C37.6277 163.599 38.3137 163.256 39.0294 163.004Z" fill="#294C75"/>
<path fill-rule="evenodd" clip-rule="evenodd" d="M132.287 162.846C132.7 163.846 133.07 164.876 133.396 165.933C134.557 165.985 135.718 166.039 136.879 166.092C135.895 166.768 134.945 167.48 134.029 168.229C134.421 169.271 134.711 170.325 134.9 171.396C134.081 170.723 133.237 170.089 132.367 169.496C131.427 170.066 130.53 170.699 129.675 171.396C129.833 170.287 130.123 169.206 130.546 168.15C129.648 167.464 128.751 166.777 127.854 166.092C128.962 166.039 130.071 165.985 131.179 165.933C131.565 164.909 131.934 163.88 132.287 162.846Z" fill="#002B5C"/>
<path fill-rule="evenodd" clip-rule="evenodd" d="M39.029 169.021C41.8179 168.631 43.5331 169.793 44.1748 172.504C44.2853 173.68 44.2062 174.841 43.9373 175.987C41.7561 176.076 39.5922 175.891 37.4456 175.433C36.5487 175.118 36.1791 174.485 36.3373 173.533C36.2467 171.416 37.144 169.912 39.029 169.021Z" fill="#002B5C"/>
<path fill-rule="evenodd" clip-rule="evenodd" d="M335.587 169.18C337.923 169.737 340.244 170.343 342.554 171.001C340.428 172.117 338.265 173.146 336.062 174.088C335.944 172.448 335.785 170.812 335.587 169.18Z" fill="#002B5C"/>
<path fill-rule="evenodd" clip-rule="evenodd" d="M176.621 204.646C179.457 204.44 181.49 205.601 182.717 208.13C183.401 209.806 183.822 211.548 183.984 213.355C184.539 219.272 184.487 225.182 183.825 231.088C183.575 233.672 182.836 236.101 181.609 238.371C180.22 240.295 178.347 241.008 175.988 240.509C173.644 239.605 172.299 237.888 171.95 235.363C171.532 233.593 171.32 231.799 171.317 229.98C171.211 225.652 171.211 221.324 171.317 216.996C171.42 214.013 171.947 211.111 172.9 208.288C173.608 206.497 174.849 205.283 176.621 204.646Z" fill="#294C75"/>
<path fill-rule="evenodd" clip-rule="evenodd" d="M223.329 208.762C231.597 208.662 236.795 212.62 238.925 220.637C239.289 222.039 239.474 223.464 239.479 224.912C233.738 226.395 228.011 227.925 222.3 229.503C222.436 232.124 223.518 234.261 225.546 235.916C228.234 237.401 230.82 237.243 233.304 235.441C234.344 234.507 235.269 233.477 236.075 232.353C237.24 233.702 238.374 235.075 239.479 236.47C235.99 241.739 231.056 244.483 224.675 244.703C216.587 244.727 211.416 240.875 209.158 233.145C207.597 226.47 208.706 220.295 212.483 214.62C215.305 211.19 218.92 209.238 223.329 208.762Z" fill="#002B5C"/>
<path fill-rule="evenodd" clip-rule="evenodd" d="M250.879 208.605C251.226 208.814 251.463 209.131 251.592 209.555C252.611 212.258 253.192 215.054 253.333 217.947C254.119 215.584 255.121 213.315 256.342 211.138C258.389 208.366 260.895 207.864 263.862 209.634C265.052 210.72 265.764 212.066 266 213.672C266.066 214.679 266.066 215.682 266 216.68C267.613 213.774 269.963 211.689 273.046 210.426C276.404 208.874 279.887 208.505 283.496 209.317C287.103 210.288 288.713 212.636 288.325 216.363C287.731 218.17 286.49 219.253 284.604 219.609C281.434 220.043 279.191 218.803 277.875 215.888C277.628 215.332 277.495 214.751 277.479 214.147C275.793 214.17 275.001 215.041 275.104 216.759C275.046 218.065 275.627 218.963 276.846 219.451C278.659 220.179 280.506 220.812 282.387 221.351C288.486 223.662 290.993 228.069 289.908 234.572C289.294 239.355 286.681 242.442 282.071 243.834C277.337 245.09 272.64 244.984 267.979 243.517C264.884 242.105 263.592 239.703 264.1 236.313C264.874 233.3 266.801 232.059 269.879 232.592C272.047 233.23 273.419 234.655 273.996 236.867C274.295 237.775 274.533 238.698 274.708 239.638C274.856 239.963 275.093 240.2 275.421 240.351C276.67 240.481 277.884 240.322 279.062 239.876C280.559 238.924 280.848 237.683 279.933 236.155C279.644 235.653 279.248 235.257 278.746 234.967C276.255 233.669 273.722 232.456 271.146 231.326C266.586 228.724 264.554 224.793 265.05 219.53C263.753 221.574 261.932 222.18 259.587 221.351C258.775 221.037 257.958 220.747 257.133 220.48C256.737 220.557 256.421 220.768 256.183 221.113C255.688 222.179 255.319 223.287 255.075 224.438C254.812 226.015 254.6 227.599 254.442 229.188C254.362 232.301 254.336 235.415 254.362 238.53C255.419 238.688 256.473 238.847 257.529 239.005C257.529 240.536 257.529 242.065 257.529 243.597C251.406 243.597 245.285 243.597 239.162 243.597C239.11 242.062 239.162 240.531 239.321 239.005C240.375 238.847 241.431 238.688 242.487 238.53C242.514 232.778 242.487 227.024 242.408 221.272C242.413 219.596 241.807 218.198 240.587 217.076C239.796 216.645 238.952 216.46 238.054 216.522C238.003 215.161 238.057 213.816 238.212 212.484C242.467 211.233 246.69 209.94 250.879 208.605Z" fill="#002B5C"/>
<path fill-rule="evenodd" clip-rule="evenodd" d="M223.171 213.512C224.596 213.235 225.677 213.71 226.416 214.937C227.536 217.209 227.694 219.532 226.891 221.904C226.602 222.194 226.31 222.485 226.021 222.775C224.478 223.372 222.895 223.82 221.271 224.12C221.207 221.633 221.286 219.152 221.508 216.679C221.695 215.406 222.249 214.351 223.171 213.512Z" fill="#294C75"/>
<path fill-rule="evenodd" clip-rule="evenodd" d="M48.0542 218.58C48.1519 218.597 48.2311 218.65 48.2917 218.738C49.3432 222.261 50.4251 225.772 51.5376 229.268C55.3903 229.32 59.2432 229.374 63.0959 229.426C59.9343 231.692 56.8204 234.013 53.7542 236.393C54.8469 239.803 55.9552 243.207 57.0792 246.605C57.0265 246.657 56.9736 246.711 56.9209 246.763C54.0182 244.653 51.1153 242.541 48.2126 240.43C45.1558 242.563 42.1212 244.727 39.1084 246.922C40.0894 243.397 41.1713 239.887 42.3542 236.393C39.2981 234.071 36.2369 231.75 33.1709 229.426C36.9709 229.374 40.7709 229.32 44.5709 229.268C45.7795 225.721 46.9405 222.158 48.0542 218.58Z" fill="#294C75"/>
<path fill-rule="evenodd" clip-rule="evenodd" d="M331.788 218.58C331.886 218.597 331.965 218.65 332.025 218.738C333.076 222.261 334.158 225.772 335.271 229.268C339.123 229.32 342.977 229.374 346.829 229.426C343.667 231.692 340.555 234.013 337.488 236.393C338.58 239.803 339.688 243.207 340.813 246.605C340.76 246.657 340.707 246.711 340.654 246.763C337.752 244.653 334.848 242.541 331.946 240.43C328.889 242.563 325.855 244.727 322.842 246.922C323.823 243.397 324.905 239.887 326.088 236.393C323.032 234.071 319.97 231.75 316.904 229.426C320.704 229.374 324.504 229.32 328.304 229.268C329.512 225.721 330.675 222.158 331.788 218.58Z" fill="#294C75"/>
<path fill-rule="evenodd" clip-rule="evenodd" d="M145.112 223.33C145.739 225.257 146.294 227.209 146.775 229.188C141.651 234.26 136.584 239.379 131.575 244.547C131.224 242.188 131.118 239.813 131.258 237.422C135.851 232.697 140.469 227.999 145.112 223.33Z" fill="#002B5C"/>
<path fill-rule="evenodd" clip-rule="evenodd" d="M92.229 287.929C96.029 288.035 99.829 288.139 103.629 288.245C100.628 290.427 97.6457 292.644 94.6831 294.895C95.6016 298.444 96.6837 301.954 97.929 305.425C97.8234 305.531 97.7179 305.531 97.6123 305.425C94.7501 303.241 91.8209 301.158 88.8248 299.17C85.844 301.241 82.8886 303.354 79.9581 305.504C80.8914 301.938 81.9732 298.401 83.204 294.895C80.09 292.652 76.9762 290.41 73.8623 288.166C77.6634 288.139 81.4634 288.06 85.2623 287.929C86.4335 284.336 87.621 280.747 88.8248 277.162C90.0079 280.737 91.1426 284.327 92.229 287.929Z" fill="#294C75"/>
<path fill-rule="evenodd" clip-rule="evenodd" d="M298.379 287.929C302.179 288.035 305.979 288.139 309.779 288.245C306.735 290.441 303.701 292.658 300.675 294.895C300.569 295.106 300.569 295.318 300.675 295.529C301.861 298.847 302.89 302.172 303.763 305.504C300.845 303.298 297.863 301.187 294.817 299.17C291.862 301.279 288.908 303.39 285.95 305.504C286.907 301.944 287.988 298.409 289.196 294.895C286.158 292.622 283.095 290.378 280.013 288.166C283.814 288.139 287.614 288.06 291.413 287.929C292.531 284.388 293.666 280.853 294.817 277.32C296.03 280.859 297.217 284.395 298.379 287.929Z" fill="#294C75"/>
<path fill-rule="evenodd" clip-rule="evenodd" d="M92.229 287.93C96.0832 287.877 99.936 287.93 103.787 288.088C103.768 288.185 103.715 288.237 103.629 288.246C99.829 288.14 96.029 288.036 92.229 287.93Z" fill="#002B5C"/>
<path fill-rule="evenodd" clip-rule="evenodd" d="M298.379 287.93C302.233 287.877 306.087 287.93 309.938 288.088C309.919 288.185 309.865 288.237 309.779 288.246C305.979 288.14 302.179 288.036 298.379 287.93Z" fill="#002B5C"/>
<path fill-rule="evenodd" clip-rule="evenodd" d="M229.504 315.479C230.817 318.995 231.979 322.585 232.988 326.245C236.842 326.218 240.694 326.245 244.546 326.324C241.364 328.547 238.249 330.843 235.204 333.212C236.371 336.738 237.453 340.274 238.45 343.82C235.543 341.626 232.614 339.461 229.663 337.329C226.632 339.436 223.624 341.573 220.638 343.741C220.532 343.847 220.427 343.847 220.321 343.741C221.498 340.24 222.658 336.73 223.804 333.212C223.676 333.004 223.518 332.819 223.329 332.658C220.399 330.585 217.496 328.475 214.621 326.324C218.423 326.297 222.223 326.218 226.021 326.087C227.247 322.569 228.407 319.033 229.504 315.479Z" fill="#294C75"/>
<path fill-rule="evenodd" clip-rule="evenodd" d="M152.237 315.637C152.395 315.632 152.501 315.711 152.554 315.874C153.647 319.285 154.755 322.689 155.879 326.087C159.677 326.218 163.477 326.298 167.279 326.324C164.139 328.595 161.025 330.891 157.937 333.212C159.136 336.675 160.217 340.158 161.183 343.662C158.232 341.581 155.303 339.471 152.396 337.329C149.339 339.461 146.304 341.626 143.292 343.82C144.297 340.278 145.378 336.743 146.537 333.212C146.372 332.943 146.161 332.705 145.904 332.499C143.054 330.441 140.204 328.383 137.354 326.324C141.206 326.245 145.059 326.218 148.912 326.245C149.989 322.7 151.097 319.163 152.237 315.637Z" fill="#294C75"/>
</svg>
