<svg width="40" height="33" viewBox="0 0 40 33" fill="none" xmlns="http://www.w3.org/2000/svg">
<path d="M39.3638 3.83892C38.4751 4.22979 37.5525 4.53815 36.6058 4.76139C37.649 3.77828 38.4333 2.54861 38.8757 1.17608C39.002 0.784247 38.5729 0.445419 38.2162 0.655216C36.8992 1.42998 35.4806 2.01121 33.9997 2.38292C33.9138 2.40449 33.8251 2.41542 33.7362 2.41542C33.4664 2.41542 33.2042 2.31608 32.9979 2.13579C31.4223 0.758518 29.3959 0 27.292 0C26.3816 0 25.4624 0.140735 24.56 0.418336C21.7637 1.27851 19.6062 3.56616 18.9293 6.3886C18.6753 7.44725 18.6066 8.50688 18.7248 9.53797C18.7383 9.65646 18.6819 9.73916 18.6471 9.77794C18.5859 9.84594 18.4992 9.88492 18.4092 9.88492C18.3992 9.88492 18.3888 9.88444 18.3786 9.88347C12.2578 9.31947 6.7383 6.39479 2.83685 1.64829C2.6379 1.40619 2.25638 1.43588 2.09781 1.70565C1.3338 3.00564 0.930053 4.4925 0.930053 6.00547C0.930053 8.32416 1.86931 10.5093 3.50079 12.1022C2.81471 11.9409 2.15067 11.6868 1.53383 11.347C1.2354 11.1826 0.868223 11.3939 0.86403 11.7325C0.821314 15.177 2.85469 18.2421 5.90076 19.6222C5.83942 19.6237 5.77808 19.6244 5.71664 19.6244C5.23379 19.6244 4.7449 19.5781 4.26372 19.4869C3.92765 19.4233 3.64532 19.7395 3.74967 20.0626C4.73837 23.1241 7.3961 25.3807 10.5766 25.893C7.93697 27.6504 4.8631 28.5774 1.66383 28.5774L0.666446 28.5769C0.359147 28.5769 0.0992454 28.7755 0.0209335 29.0707C-0.056208 29.3615 0.0858846 29.6682 0.347932 29.8194C3.95301 31.9002 8.06511 33 12.2415 33C15.8972 33 19.3168 32.2805 22.4054 30.8615C25.2368 29.5606 27.7389 27.7011 29.8421 25.3345C31.8013 23.13 33.3334 20.585 34.3957 17.7705C35.4082 15.0877 35.9435 12.225 35.9435 9.49193V9.36173C35.9434 8.92289 36.1435 8.50997 36.4926 8.22889C37.8175 7.16201 38.9712 5.90613 39.9216 4.49617C40.1725 4.12388 39.7767 3.65727 39.3638 3.83892Z" fill="black"/>
</svg>
